<svg xmlns="http://www.w3.org/2000/svg" width="2300" height="500" viewBox="0 0 2300 500"><g fill="#010202"><path d="M1305.8 197c-33.8 58.7-12.3 147.7 25.1 201.7 18.7 27 37.6 51.2 63.4 51.2h1.5c12.2-.5 20.9-4.2 29.4-7.8 9.5-4.1 19.4-8.3 34.9-8.3 14.7 0 24.1 4.1 33.2 8 9 3.9 18.2 7.9 31.8 7.6 29.2-.5 47.1-26.7 62.9-49.8 16.5-24.1 24.7-47.5 27.5-56.4l.1-.4c.5-1.6-.2-3.3-1.7-4l-.2-.1c-5.1-2.1-50.2-22.1-50.6-76.5-.4-44.2 33.8-67.7 40.7-71.9l.3-.2c.7-.5 1.3-1.2 1.4-2.1.2-.9 0-1.8-.5-2.5-23.6-34.6-59.8-39.8-74.4-40.4-2.1-.2-4.3-.3-6.5-.3-17.1 0-33.5 6.5-46.7 11.7-9.1 3.6-17 6.7-22.4 6.7-6.1 0-14-3.1-23.1-6.8-12.2-4.9-26.1-10.4-40.8-10.4h-1c-34.2.6-66.5 20.1-84.3 51z"/><path d="M1530.6 50c-20.7.8-45.5 13.6-60.3 30.9-12.6 14.6-24.9 38.9-21.7 63.4.2 1.5 1.5 2.7 3 2.8 1.4.1 2.8.2 4.2.2 20.2 0 42-11.2 56.9-29.2 15.7-19 23.6-43.4 21.2-65.3-.1-1.6-1.6-2.9-3.3-2.8z"/></g><g fill="#010202"><path d="M233.6 83.8v153.1c0 1.8 1.5 3.3 3.3 3.3h209.8c1.8 0 3.3-1.5 3.3-3.3v-183.6c0-1-.4-1.9-1.1-2.5-.7-.6-1.7-.9-2.6-.8l-209.9 30.6c-1.6.2-2.8 1.6-2.8 3.2z"/><path d="M210.7 417.1c.8 0 1.6-.3 2.2-.8.7-.6 1.1-1.5 1.1-2.5v-150.7c0-1.8-1.5-3.3-3.3-3.3h-157.3c-.9 0-1.7.3-2.3 1-.6.6-1 1.4-1 2.3v129.2c0 1.6 1.2 3 2.8 3.2l157.2 21.6h.6z"/><path d="M53.4 240.2h157.2c1.8 0 3.3-1.5 3.3-3.3v-149.3c0-.9-.4-1.8-1.1-2.5-.7-.6-1.7-.9-2.6-.8l-157.4 21.4c-1.6.2-2.8 1.6-2.8 3.3l.1 127.9c0 1.8 1.5 3.3 3.3 3.3z"/><path d="M446.7 450c.8 0 1.6-.3 2.2-.8.7-.6 1.1-1.5 1.1-2.5l.1-183.6c0-.9-.3-1.7-1-2.3-.6-.6-1.4-1-2.3-1h-209.9c-1.8 0-3.3 1.5-3.3 3.3v154.1c0 1.6 1.2 3 2.8 3.2l209.8 29.6h.5z"/></g><path fill="#010202" d="M1011.4 371.2c-11.7-4.8-16.7-11.2-16.3-20.7.5-11.1-5.8-19.2-8.8-22.4 1.8-6.9 7.1-30.8 0-51.5-7.6-22.2-30.9-56.1-54.8-89.4-9.8-13.7-10.3-28.6-10.8-45.8-.5-16.4-1.1-35.1-10.3-55.8-10-22.5-30-35.5-54.9-35.5-14.8 0-30 4.6-41.7 12.7-24 16.5-20.8 52.6-18.7 76.4.3 3.3.6 6.4.7 9 1.4 23.4.1 35.7-1.5 39.4-1.1 2.4-6.4 9.4-12 16.8-5.8 7.6-12.3 16.3-17.7 24.3-6.4 9.7-11.6 24.5-16.6 38.8-3.7 10.5-7.1 20.4-10.5 26.3-6.4 11.4-4.8 22-3.5 26.9-2.4 1.7-5.9 5-8.9 11.2-3.6 7.6-10.8 11.7-25.8 14.6-6.9 1.4-11.7 4.3-14.2 8.6-3.6 6.3-1.7 14.2.2 19.6 2.7 7.9 1 13-2 22.1-.7 2.1-1.5 4.5-2.3 7.1-1.3 4.1-.8 7.9 1.3 11.2 5.7 8.7 22.3 11.7 39.3 13.8 10.2 1.2 21.3 5.3 32.1 9.2 10.6 3.9 21.5 7.9 31.4 9.1 1.5.2 3 .3 4.4.3 15 0 21.8-10 23.9-14 5.4-1.1 24-4.6 43.1-5.1s37.6 3.2 42.9 4.4c1.6 3.2 6 10.4 12.9 14.1 3.8 2.1 9.1 3.3 14.5 3.3 5.8 0 16.8-1.4 25.5-10.5 8.7-9.2 30.4-21 46.3-29.6 3.5-1.9 6.9-3.7 9.8-5.3 8.9-4.9 13.8-12 13.3-19.4-.1-6.3-4.1-11.7-10.3-14.2zm-197.3-1.8c-1.1-7.8-11.2-15.6-22.8-24.5-9.5-7.3-20.3-15.7-23.3-22.7-6.1-14.5-1.3-40.1 7.1-53.2 4.2-6.6 7.6-16.6 10.9-26.2 3.6-10.4 7.2-21.2 11.4-25.9 6.5-7.4 12.5-21.7 13.6-33 6.1 5.8 15.6 13.2 24.3 13.2 1.3 0 2.7-.2 3.9-.5 6-1.7 14.8-6.8 23.3-11.7 7.3-4.2 16.4-9.5 19.8-9.9 5.8 8.4 39.8 83.5 43.2 107.6 2.7 19.1-.2 34.9-1.6 41-1.2-.2-2.6-.3-4-.3-9.5 0-12 5.2-12.6 8.2-1.7 8-1.9 33.6-1.9 39.3-3.4 4.3-20.7 24.8-45.5 28.5-10.1 1.5-19.5 2.2-28.1 2.2-7.3 0-11.9-.6-13.8-.9l-12.5-14.3c5-2.5 9.9-7.7 8.6-16.9zm15.8-235.3c-.4.2-.8.3-1.1.5 0-.8-.1-1.7-.3-2.6-1.4-7.8-6.6-13.5-12.4-13.5-.4 0-.9 0-1.3.1-3.4.6-6.2 3.2-7.6 6.8 1.3-8.1 5.9-14 11.3-14 6.4 0 11.7 8.6 11.7 18.7 0 1.4-.1 2.7-.3 4zm49.4 6.1c.6-1.9.9-3.9.9-5.9 0-9.2-5.8-16.4-13.3-16.4-7.3 0-13.2 7.4-13.2 16.4 0 .6 0 1.2.1 1.9-.4-.1-.8-.3-1.1-.4-.8-2.5-1.3-5.2-1.3-7.9 0-11 7-19.9 15.7-19.9 8.6 0 15.7 8.9 15.7 19.9 0 4.4-1.3 8.8-3.5 12.3zm-6.3 21.4c-.1.6-.4.8-3.3 2.3-1.5.8-3.3 1.7-5.6 3.1l-1.5.9c-6.2 3.8-20.7 12.5-24.6 13.1-2.7.4-4.3-.7-8-3.2-.8-.6-1.7-1.2-2.7-1.8-6.7-4.4-11-9.2-11.5-11.1 2.2-1.7 7.6-5.9 10.4-8.4 5.6-5.2 11.3-8.7 14.1-8.7h.4c3.3.6 11.4 3.8 17.3 6.2 2.7 1.1 5.1 2 6.8 2.6 5.1 1.8 7.8 4.1 8.2 5zm47.1 244.4c3-13.4 6.4-31.5 5.8-42.2-.1-2.4-.3-5.1-.6-7.6-.4-4.8-1-11.9-.4-14 .1-.1.2-.1.4-.1 0 6.1 1.4 18.3 11.1 22.6 2.9 1.3 6.2 1.9 9.9 1.9 9.8 0 20.6-4.8 25.1-9.2 2.6-2.6 4.8-5.8 6.4-8.4.3 1 .5 2.3.4 3.9-.6 9 3.8 21 12.2 25.4l1.2.6c3 1.6 10.9 5.7 11 7.7 0 0-.1.2-.5.6-2 1.8-8.9 5.4-15.7 8.8-11.9 6.1-25.5 13-31.6 19.4-8.6 9-18.3 15.1-24.1 15.1-.7 0-1.3-.1-1.9-.3-6.3-2-11.5-11.1-8.7-24.2zm-216.5-34.1c-.6-3-1.2-5.4-.6-7.7.4-1.7 8.9-3.6 12.5-4.3 5.1-1.1 10.4-2.2 13.8-4.3 4.7-2.8 7.2-8 9.4-12.6 1.6-3.3 3.3-6.8 5.3-7.9.1-.1.3-.1.6-.1 3.7 0 11.5 7.8 16 14.8 1.1 1.8 3.2 5.3 5.7 9.4 7.3 12.2 17.3 28.9 22.5 34.5 4.7 5 12.3 14.7 10.4 23-1.4 6.4-8.7 11.7-10.4 12.8-.6.1-1.4.2-2.3.2-10 0-29.7-8.3-40.3-12.8l-1.6-.7c-5.9-2.5-15.6-4-24.9-5.6-7.4-1.2-17.6-2.9-19.3-4.3-1.4-1.5.2-6.5 1.6-10.9 1-3.2 2-6.4 2.6-9.9.7-5.5-.3-10-1-13.6z"/><g fill="#030305"><path d="M2198.1 203.4c-11 11-41.5-1.7-68.2-28.4-26.6-26.6-39.3-57.2-28.4-68.2 2.2-2.2 5.2-3.1 8.7-3.6-22.1-9.6-46.5-15.1-72.2-15.1-99.9 0-180.9 81-180.9 180.9s81 180.9 180.9 180.9 180.9-81 180.9-180.9c0-27.3-6.2-53.1-17-76.3-.1 4.5-1.2 8.2-3.8 10.7zM2181.6 194.7s86.7-119.4 64.9-141.1c-21.8-21.8-138.1 64.3-138.1 64.3s6.9 53.9 73.2 76.8zM1967.8 92.1s-47.7-41.9-65.1-30.1c-17.5 11.9 3.9 69.5 3.9 69.5s18.7-41.8 61.2-39.4z"/></g></svg>