<svg xmlns="http://www.w3.org/2000/svg" viewBox="0 0 800 10"><defs><style>.cls-1{fill:none;stroke:#000;stroke-miterlimit:10;stroke-width:0.5px;}</style></defs><title>hr_template</title><path d="M400 .5a4.5 4.5 0 1 1-4.5 4.5A4.5 4.5 0 0 1 400 .5m0-.5a5 5 0 1 0 5 5 5 5 0 0 0-5-5zM450 .5a4.5 4.5 0 1 1-4.5 4.5A4.5 4.5 0 0 1 450 .5m0-.5a5 5 0 1 0 5 5 5 5 0 0 0-5-5zM350 .5a4.5 4.5 0 1 1-4.5 4.5A4.5 4.5 0 0 1 350 .5m0-.5a5 5 0 1 0 5 5 5 5 0 0 0-5-5zM300 .5a4.5 4.5 0 1 1-4.5 4.5A4.5 4.5 0 0 1 300 .5m0-.5a5 5 0 1 0 5 5 5 5 0 0 0-5-5zM500 .5a4.5 4.5 0 1 1-4.5 4.5A4.5 4.5 0 0 1 500 .5m0-.5a5 5 0 1 0 5 5 5 5 0 0 0-5-5z"/><path d="M305 5h40M355 5h40M405 5h40M455 5h40M295 5H0M800 5H505" class="cls-1"/></svg>