<?xml version="1.0" encoding="utf-8"?>
<!-- Generator: Adobe Illustrator 23.0.1, SVG Export Plug-In . SVG Version: 6.00 Build 0)  -->
<svg version="1.1" id="Layer_1" xmlns="http://www.w3.org/2000/svg" xmlns:xlink="http://www.w3.org/1999/xlink" x="0px" y="0px"
	 viewBox="0 0 344.6 387" style="enable-background:new 0 0 344.6 387;" xml:space="preserve">
<style type="text/css">
	.st0{fill-rule:evenodd;clip-rule:evenodd;fill:#818181;stroke:#585858;stroke-width:27;}
	.st1{fill-rule:evenodd;clip-rule:evenodd;fill:#FFFFFF;}
</style>
<path class="st0" d="M194.8,20.4L309.2,87c13.5,7.9,21.9,22.4,21.9,38v136.4c0,17.3-9.3,33.3-24.5,41.8l-113.6,63.9
	c-15.1,8.5-33.5,8.4-48.5-0.2L40.1,306.8c-16.4-9.5-26.6-27-26.6-45.9V131.4c0-19.1,9.9-36.8,26.1-46.8l102.8-63.5
	C158.4,11.2,178.6,11,194.8,20.4z"/>
<polygon class="st1" points="92.9,296.2 92.9,89 136.3,89 136.3,164.5 208.2,164.5 208.2,89 251.7,89 251.7,296.2 208.2,296.2 
	208.2,205.6 136.3,205.6 136.3,296.2 "/>
</svg>
