<svg xmlns="http://www.w3.org/2000/svg" width="92.5" height="40" viewBox="153.8 66.5 92.5 40" enable-background="new 153.8 66.5 92.5 40"><linearGradient id="a" gradientUnits="userSpaceOnUse" x1="174.735" y1="437.393" x2="228.823" y2="383.305" gradientTransform="translate(0 -326)"><stop offset="0" stop-color="#454444"/><stop offset=".508" stop-color="#525251"/><stop offset="1" stop-color="#424241"/></linearGradient><path fill="url(#a)" d="M173.4 79.2c-5.6 0-8.5 2.4-8.5 7.2 0 4.8 2.8 7.2 8.5 7.2h16.9v7.2h-16.9c-11.3 0-16.9-4.8-16.9-14.5s5.6-14.3 16.9-14.3h22.1c3.8 0 6.9 3.1 6.9 6.9v7.6c0 4.8 2 7.2 6.1 7.2 4 0 6.1-2.4 6.1-7.2v-14.5h8.5v14.5c0 4.8 2 7.2 6.1 7.2 4 0 6.1-2.4 6.1-7.2v-14.5h8.4v14.5c0 8.1-6.6 14.6-14.6 14.6-4.4 0-7.8-1-10.2-3.1-2.4 2-5.8 3-10.2 3.1-8.1 0-14.6-6.5-14.6-14.6v-5.8c0-.8-.6-1.4-1.4-1.4"/></svg>