<svg id="a1da6cf2-81d4-4a35-a6a9-1a48cbcfe00c" data-name="Layer 1" xmlns="http://www.w3.org/2000/svg" xmlns:xlink="http://www.w3.org/1999/xlink" viewBox="0 0 1120 877.03"><defs><style>.a13bd972-8ab3-4e8f-adf6-7179f540359f,.a1dedb85-a4e8-43d0-bb5d-847524a75d23,.a24fc78b-edfe-48f8-a08e-1e0a92dd2b6d,.a4839fcb-1aa7-4052-b365-b93e7011bf06,.a5c27f71-458b-4230-b258-64290ed1771a,.a675d0e9-e247-4caf-b210-cadf328eb1f1,.a732621e-7438-417f-a6c7-7053f5420acd,.a831bbf1-ad71-4c53-aa30-47e96278a540,.aa91e6a7-687d-4662-9539-672696251365,.aabe2a5c-e12c-44cb-9381-80dfda5fc331,.ad474023-4bfe-410f-95b1-a2cf5f89655f,.ad614c89-efd9-4da8-a6a9-f48fd4c1a842,.ae8891c2-9d7c-4f22-944c-50294b5b0dfe,.aea6f51a-6689-4f07-9f57-5d65a4f7cf0a,.af21b908-a9c4-4073-93d6-e88afc760418,.b357d7f7-b1a4-44a1-b311-fbd995685d6a,.b3c7e9b7-977b-40e4-876b-e5ac421fa8e4,.b409296e-8360-492d-9992-4ece015cfe66,.b66e9b0c-e495-4013-92f0-990705a14345,.b6af3d49-bc5b-476c-b6ad-df03ed543d9a,.b6e4ed25-696b-46aa-9a6a-8cd18067e568,.b79af71b-153b-42ca-b989-62994e46f1a0,.b811dc41-031a-4af4-89c2-48287bbfaa5f,.b81a0675-7ac3-4a0a-9328-ca960f4b46d0,.b99b686e-9f29-4719-be28-2104827ad38e,.bb30dcd1-9013-4174-8194-5b6587e093de,.bbf118c8-0b33-47df-a4d4-9f9b728bd740,.bbf217bd-afc9-4f38-b611-0f6c3f60865d,.bbfc791f-3a11-4201-b093-4773a11fc2e5,.bc2f3f3d-51d7-4c0f-93fb-b5bb5215fbd0,.bc3cd0d5-a708-4346-a853-28c06b793e86,.bc49881b-986f-4cf0-a4a9-5947aeba851e,.bcd8c7b3-5431-4a48-ae73-34ca57d7dc9a,.bcf969c1-355f-4821-87ad-9081c98a31df,.bf7b5536-82e5-4943-a78a-edff4d6837ec,.bfdc6638-bf2c-4b7d-b114-827c04514062,.e2586949-e5f8-4dfd-ad75-6e5bcbca210e,.e53b627a-6766-46c1-be32-6841a73ff3dc,.e9014772-c7df-4162-8fdc-f8c4f519b878,.e91d4387-abe6-4f46-9eca-fd688146f224,.e9c2fd64-cec3-4fbd-b64d-0f2bc7d87ce6,.ee3e049a-5462-4323-82d9-7d139a8f3cd5,.ef1a6ff6-9d32-41be-a0ea-5f6a002b1035,.f1eaf839-fe2f-4fcd-9426-ba7ad93969dd,.f213c1d3-caae-4f53-aa2f-26b163b09d96,.f4ff2e3d-d9e1-4cd0-ab64-a74306217e50,.f669e386-ad17-4897-bb2f-2ecb49587eb7,.f6c4c964-75bf-4f87-9fcd-c99e048bba09,.faec887a-f8c0-49aa-b119-8a2a403c4ec6,.fb1bc153-9150-406f-a772-0e5b219d63d2,.fd5daffe-0202-44c9-a929-e37ea6520d17,.fe503db7-6f12-440f-b258-5035b0d8849d,.fede679e-86b6-4ab0-9900-89e00691fc3e{fill:none;}.a80bfd1d-b811-42c2-99bf-384e5b8cd0a4{clip-path:url(#a20e0097-80d1-4b9e-819b-76dc78eaeba3);}.a13bd972-8ab3-4e8f-adf6-7179f540359f,.a1dedb85-a4e8-43d0-bb5d-847524a75d23,.a24fc78b-edfe-48f8-a08e-1e0a92dd2b6d,.a4839fcb-1aa7-4052-b365-b93e7011bf06,.a5c27f71-458b-4230-b258-64290ed1771a,.a675d0e9-e247-4caf-b210-cadf328eb1f1,.a732621e-7438-417f-a6c7-7053f5420acd,.a831bbf1-ad71-4c53-aa30-47e96278a540,.aa91e6a7-687d-4662-9539-672696251365,.aabe2a5c-e12c-44cb-9381-80dfda5fc331,.ad474023-4bfe-410f-95b1-a2cf5f89655f,.ad614c89-efd9-4da8-a6a9-f48fd4c1a842,.aea6f51a-6689-4f07-9f57-5d65a4f7cf0a,.af21b908-a9c4-4073-93d6-e88afc760418,.b357d7f7-b1a4-44a1-b311-fbd995685d6a,.b3c7e9b7-977b-40e4-876b-e5ac421fa8e4,.b409296e-8360-492d-9992-4ece015cfe66,.b66e9b0c-e495-4013-92f0-990705a14345,.b6af3d49-bc5b-476c-b6ad-df03ed543d9a,.b6e4ed25-696b-46aa-9a6a-8cd18067e568,.b79af71b-153b-42ca-b989-62994e46f1a0,.b811dc41-031a-4af4-89c2-48287bbfaa5f,.b81a0675-7ac3-4a0a-9328-ca960f4b46d0,.b99b686e-9f29-4719-be28-2104827ad38e,.bb30dcd1-9013-4174-8194-5b6587e093de,.bbf118c8-0b33-47df-a4d4-9f9b728bd740,.bbf217bd-afc9-4f38-b611-0f6c3f60865d,.bbfc791f-3a11-4201-b093-4773a11fc2e5,.bc2f3f3d-51d7-4c0f-93fb-b5bb5215fbd0,.bc3cd0d5-a708-4346-a853-28c06b793e86,.bc49881b-986f-4cf0-a4a9-5947aeba851e,.bcd8c7b3-5431-4a48-ae73-34ca57d7dc9a,.bcf969c1-355f-4821-87ad-9081c98a31df,.bf7b5536-82e5-4943-a78a-edff4d6837ec,.bfdc6638-bf2c-4b7d-b114-827c04514062,.e2586949-e5f8-4dfd-ad75-6e5bcbca210e,.e53b627a-6766-46c1-be32-6841a73ff3dc,.e9014772-c7df-4162-8fdc-f8c4f519b878,.e91d4387-abe6-4f46-9eca-fd688146f224,.e9c2fd64-cec3-4fbd-b64d-0f2bc7d87ce6,.ee3e049a-5462-4323-82d9-7d139a8f3cd5,.ef1a6ff6-9d32-41be-a0ea-5f6a002b1035,.f1eaf839-fe2f-4fcd-9426-ba7ad93969dd,.f213c1d3-caae-4f53-aa2f-26b163b09d96,.f4ff2e3d-d9e1-4cd0-ab64-a74306217e50,.f669e386-ad17-4897-bb2f-2ecb49587eb7,.f6c4c964-75bf-4f87-9fcd-c99e048bba09,.faec887a-f8c0-49aa-b119-8a2a403c4ec6,.fb1bc153-9150-406f-a772-0e5b219d63d2,.fd5daffe-0202-44c9-a929-e37ea6520d17,.fe503db7-6f12-440f-b258-5035b0d8849d,.fede679e-86b6-4ab0-9900-89e00691fc3e{stroke-miterlimit:10;stroke-width:4px;}.b99b686e-9f29-4719-be28-2104827ad38e{stroke:url(#ec4fa4ed-765c-4876-967f-3f0d3453f730);}.a24fc78b-edfe-48f8-a08e-1e0a92dd2b6d{stroke:url(#b3ad7c28-c6c9-480d-8beb-f8edd1463236);}.b79af71b-153b-42ca-b989-62994e46f1a0{stroke:url(#abafcdb8-7eff-4e0d-916b-ee69eb41e946);}.af21b908-a9c4-4073-93d6-e88afc760418{stroke:url(#f7fb95b2-3716-40d4-a062-5fc2009b0d0b);}.e9c2fd64-cec3-4fbd-b64d-0f2bc7d87ce6{stroke:url(#b714aa3c-0426-49d4-8721-b6c98110adfd);}.bcd8c7b3-5431-4a48-ae73-34ca57d7dc9a{stroke:url(#e08847b3-1ea1-4e91-8b4d-26c220340275);}.bf7b5536-82e5-4943-a78a-edff4d6837ec{stroke:url(#fe631186-3237-4a69-add1-b2443d78f1f8);}.faec887a-f8c0-49aa-b119-8a2a403c4ec6{stroke:url(#a0cc31b8-f37e-4b4a-90e7-e738321a32ef);}.ad614c89-efd9-4da8-a6a9-f48fd4c1a842{stroke:url(#aaf692c7-8eff-46cd-9520-fd462a7e3bee);}.bfdc6638-bf2c-4b7d-b114-827c04514062{stroke:url(#ed3a7676-4e0e-48e5-a904-cc6adff29e37);}.bcf969c1-355f-4821-87ad-9081c98a31df{stroke:url(#b14e2bff-671a-42ba-84ea-67bb09c78458);}.b6af3d49-bc5b-476c-b6ad-df03ed543d9a{stroke:url(#ef8e21d6-74c8-4b38-b8a7-8a8844ab64a4);}.bc3cd0d5-a708-4346-a853-28c06b793e86{stroke:url(#a614305c-a41f-4785-b784-55d49b6cf323);}.bbf118c8-0b33-47df-a4d4-9f9b728bd740{stroke:url(#b790ffef-2d17-4d86-a095-64ef688cabd7);}.fb1bc153-9150-406f-a772-0e5b219d63d2{stroke:url(#a914d80e-39c8-4aaa-88c3-311599edf939);}.b3c7e9b7-977b-40e4-876b-e5ac421fa8e4{stroke:url(#ace8ae56-1c7c-4a0b-8696-cd94421d40f1);}.e53b627a-6766-46c1-be32-6841a73ff3dc{stroke:url(#a42c9437-d98e-4b6d-8e63-2d16f564b342);}.a831bbf1-ad71-4c53-aa30-47e96278a540{stroke:url(#e2e5da77-67c6-447a-927e-8a0dea33e388);}.f213c1d3-caae-4f53-aa2f-26b163b09d96{stroke:url(#fb7bd658-d627-4020-98c1-0419a41a4a5c);}.f6c4c964-75bf-4f87-9fcd-c99e048bba09{stroke:url(#f9ec7131-0ecd-4f42-95df-9671c1e1ec0b);}.f4ff2e3d-d9e1-4cd0-ab64-a74306217e50{stroke:url(#e610c4ad-4232-4fec-8d98-c71ecbd7d1fc);}.bb30dcd1-9013-4174-8194-5b6587e093de{stroke:url(#ade22e11-eb68-45c3-933f-ada8db7338aa);}.a1dedb85-a4e8-43d0-bb5d-847524a75d23{stroke:url(#f389ad5c-d204-4646-8d8a-f8955a462cb3);}.f669e386-ad17-4897-bb2f-2ecb49587eb7{stroke:url(#f52c18f1-21f1-44f0-832e-e153a4afc12a);}.fe503db7-6f12-440f-b258-5035b0d8849d{stroke:url(#a51e63e8-f0c5-470e-b70e-eb5368e2b14f);}.b409296e-8360-492d-9992-4ece015cfe66{stroke:url(#b4e83516-8a96-40e2-bc86-4cf4408de284);}.ad474023-4bfe-410f-95b1-a2cf5f89655f{stroke:url(#a5ccbd47-d6a5-409d-9bcc-9a554ea7fb60);}.a675d0e9-e247-4caf-b210-cadf328eb1f1{stroke:url(#eee79a45-cfc6-4ddf-9a1f-143102400fec);}.aabe2a5c-e12c-44cb-9381-80dfda5fc331{stroke:url(#f6723179-dae5-432a-b51a-ee442ead57ac);}.a5c27f71-458b-4230-b258-64290ed1771a{stroke:url(#f3aebea6-105b-4f16-98e7-0a64feef64ab);}.a13bd972-8ab3-4e8f-adf6-7179f540359f{stroke:url(#b653a5ec-0be8-4d18-a754-8e29f571d92e);}.bc49881b-986f-4cf0-a4a9-5947aeba851e{stroke:url(#b11d617d-792b-4aa1-a4d8-666b6aadbe55);}.b6e4ed25-696b-46aa-9a6a-8cd18067e568{stroke:url(#f6636434-0b00-4f9b-a39a-0bad9ec74091);}.bbf217bd-afc9-4f38-b611-0f6c3f60865d{stroke:url(#b5b28fd2-df30-42d9-83a5-24640c672936);}.bc2f3f3d-51d7-4c0f-93fb-b5bb5215fbd0{stroke:url(#ec50da7a-1c97-4823-b79d-8a8a9f3560d7);}.bbfc791f-3a11-4201-b093-4773a11fc2e5{stroke:url(#eea0312b-1957-4f68-a1b8-6070d72a12db);}.ee3e049a-5462-4323-82d9-7d139a8f3cd5{stroke:url(#e03baf60-7d02-4289-bc34-b7b42e5b61f4);}.fd5daffe-0202-44c9-a929-e37ea6520d17{stroke:url(#ae8c0472-ebfc-44de-93d0-aa1ddff04582);}.a4839fcb-1aa7-4052-b365-b93e7011bf06{stroke:url(#e3e706ff-0e39-4eba-9577-2eaf3ca72bfb);}.aea6f51a-6689-4f07-9f57-5d65a4f7cf0a{stroke:url(#bc1a794f-c7d0-4603-8414-aff9f8c86214);}.a732621e-7438-417f-a6c7-7053f5420acd{stroke:url(#e0c22084-e766-485c-8c8e-abf56f982890);}.e9014772-c7df-4162-8fdc-f8c4f519b878{stroke:url(#a4fafa27-7d06-42bd-a6b1-53fb1c53edb5);}.b66e9b0c-e495-4013-92f0-990705a14345{stroke:url(#b16aa7f6-3c4a-4190-8d76-0e29321ab920);}.ef1a6ff6-9d32-41be-a0ea-5f6a002b1035{stroke:url(#bd907cac-c38c-4696-af38-ae01931027a4);}.f1eaf839-fe2f-4fcd-9426-ba7ad93969dd{stroke:url(#b8fd298e-7fa3-486c-a9b7-d0d14793daf8);}.e2586949-e5f8-4dfd-ad75-6e5bcbca210e{stroke:url(#bdad521c-bbc7-4a01-9bfc-4a1ff7847f89);}.aa91e6a7-687d-4662-9539-672696251365{stroke:url(#b934cbef-ffa5-4567-b1f0-ec8e14e5e4e0);}.fede679e-86b6-4ab0-9900-89e00691fc3e{stroke:url(#fdb81c7f-d0a7-4b90-8f04-9c71e203be03);}.b357d7f7-b1a4-44a1-b311-fbd995685d6a{stroke:url(#b40f958d-d429-43c0-a384-b299d5d2e696);}.b81a0675-7ac3-4a0a-9328-ca960f4b46d0{stroke:url(#b72ac423-2800-428a-9b8b-6425e45bd7aa);}.b811dc41-031a-4af4-89c2-48287bbfaa5f{stroke:url(#b4d1ead9-31cf-42d7-9034-d1615e3abf4b);}.e91d4387-abe6-4f46-9eca-fd688146f224{stroke:url(#a5a549fb-b471-4d23-be63-124cb4a778b6);}</style><clipPath id="a20e0097-80d1-4b9e-819b-76dc78eaeba3" transform="translate(160 38.51)"><path class="ae8891c2-9d7c-4f22-944c-50294b5b0dfe" d="M426.3,791.68C210.5,791.68,34.62,615.81,34.62,400S210.5,8.32,426.3,8.32c139.4,0,269.19,74.88,339.08,195.84L596,302.08A196.73,196.73,0,0,0,426.3,204.16c-107.9,0-195.84,87.94-195.84,195.84S318.4,595.84,426.3,595.84A196.73,196.73,0,0,0,596,497.92l169.35,97.92C695.49,716.8,565.7,791.68,426.3,791.68Z"/></clipPath><linearGradient id="ec4fa4ed-765c-4876-967f-3f0d3453f730" x1="127" y1="252.49" x2="673" y2="-293.51" gradientUnits="userSpaceOnUse"><stop offset="0" stop-color="#0025d4"/><stop offset="0.19" stop-color="#391bc9"/><stop offset="0.39" stop-color="#7012be"/><stop offset="0.58" stop-color="#9b0ab6"/><stop offset="0.75" stop-color="#ba05b0"/><stop offset="0.89" stop-color="#cd01ac"/><stop offset="0.99" stop-color="#d400ab"/></linearGradient><linearGradient id="b3ad7c28-c6c9-480d-8beb-f8edd1463236" x1="127" y1="268.98" x2="673" y2="-277.02" xlink:href="#ec4fa4ed-765c-4876-967f-3f0d3453f730"/><linearGradient id="abafcdb8-7eff-4e0d-916b-ee69eb41e946" x1="127" y1="285.47" x2="673" y2="-260.53" xlink:href="#ec4fa4ed-765c-4876-967f-3f0d3453f730"/><linearGradient id="f7fb95b2-3716-40d4-a062-5fc2009b0d0b" x1="127" y1="301.96" x2="673" y2="-244.04" xlink:href="#ec4fa4ed-765c-4876-967f-3f0d3453f730"/><linearGradient id="b714aa3c-0426-49d4-8721-b6c98110adfd" x1="127" y1="318.45" x2="673" y2="-227.55" xlink:href="#ec4fa4ed-765c-4876-967f-3f0d3453f730"/><linearGradient id="e08847b3-1ea1-4e91-8b4d-26c220340275" x1="127" y1="334.94" x2="673" y2="-211.06" xlink:href="#ec4fa4ed-765c-4876-967f-3f0d3453f730"/><linearGradient id="fe631186-3237-4a69-add1-b2443d78f1f8" x1="127" y1="351.43" x2="673" y2="-194.57" xlink:href="#ec4fa4ed-765c-4876-967f-3f0d3453f730"/><linearGradient id="a0cc31b8-f37e-4b4a-90e7-e738321a32ef" x1="127" y1="367.92" x2="673" y2="-178.08" xlink:href="#ec4fa4ed-765c-4876-967f-3f0d3453f730"/><linearGradient id="aaf692c7-8eff-46cd-9520-fd462a7e3bee" x1="127" y1="384.41" x2="673" y2="-161.59" xlink:href="#ec4fa4ed-765c-4876-967f-3f0d3453f730"/><linearGradient id="ed3a7676-4e0e-48e5-a904-cc6adff29e37" x1="127" y1="400.9" x2="673" y2="-145.1" xlink:href="#ec4fa4ed-765c-4876-967f-3f0d3453f730"/><linearGradient id="b14e2bff-671a-42ba-84ea-67bb09c78458" x1="127" y1="417.39" x2="673" y2="-128.61" xlink:href="#ec4fa4ed-765c-4876-967f-3f0d3453f730"/><linearGradient id="ef8e21d6-74c8-4b38-b8a7-8a8844ab64a4" x1="127" y1="433.88" x2="673" y2="-112.12" xlink:href="#ec4fa4ed-765c-4876-967f-3f0d3453f730"/><linearGradient id="a614305c-a41f-4785-b784-55d49b6cf323" x1="127" y1="450.38" x2="673" y2="-95.62" xlink:href="#ec4fa4ed-765c-4876-967f-3f0d3453f730"/><linearGradient id="b790ffef-2d17-4d86-a095-64ef688cabd7" x1="127" y1="466.87" x2="673" y2="-79.13" xlink:href="#ec4fa4ed-765c-4876-967f-3f0d3453f730"/><linearGradient id="a914d80e-39c8-4aaa-88c3-311599edf939" x1="127" y1="483.36" x2="673" y2="-62.64" xlink:href="#ec4fa4ed-765c-4876-967f-3f0d3453f730"/><linearGradient id="ace8ae56-1c7c-4a0b-8696-cd94421d40f1" x1="127" y1="499.85" x2="673" y2="-46.15" xlink:href="#ec4fa4ed-765c-4876-967f-3f0d3453f730"/><linearGradient id="a42c9437-d98e-4b6d-8e63-2d16f564b342" x1="127" y1="516.34" x2="673" y2="-29.66" xlink:href="#ec4fa4ed-765c-4876-967f-3f0d3453f730"/><linearGradient id="e2e5da77-67c6-447a-927e-8a0dea33e388" x1="127" y1="532.83" x2="673" y2="-13.17" xlink:href="#ec4fa4ed-765c-4876-967f-3f0d3453f730"/><linearGradient id="fb7bd658-d627-4020-98c1-0419a41a4a5c" x1="127" y1="549.32" x2="673" y2="3.32" xlink:href="#ec4fa4ed-765c-4876-967f-3f0d3453f730"/><linearGradient id="f9ec7131-0ecd-4f42-95df-9671c1e1ec0b" x1="127" y1="565.81" x2="673" y2="19.81" xlink:href="#ec4fa4ed-765c-4876-967f-3f0d3453f730"/><linearGradient id="e610c4ad-4232-4fec-8d98-c71ecbd7d1fc" x1="127" y1="582.3" x2="673" y2="36.3" xlink:href="#ec4fa4ed-765c-4876-967f-3f0d3453f730"/><linearGradient id="ade22e11-eb68-45c3-933f-ada8db7338aa" x1="127" y1="598.79" x2="673" y2="52.79" xlink:href="#ec4fa4ed-765c-4876-967f-3f0d3453f730"/><linearGradient id="f389ad5c-d204-4646-8d8a-f8955a462cb3" x1="127" y1="615.28" x2="673" y2="69.28" xlink:href="#ec4fa4ed-765c-4876-967f-3f0d3453f730"/><linearGradient id="f52c18f1-21f1-44f0-832e-e153a4afc12a" x1="127" y1="631.77" x2="673" y2="85.77" xlink:href="#ec4fa4ed-765c-4876-967f-3f0d3453f730"/><linearGradient id="a51e63e8-f0c5-470e-b70e-eb5368e2b14f" x1="127" y1="648.26" x2="673" y2="102.26" xlink:href="#ec4fa4ed-765c-4876-967f-3f0d3453f730"/><linearGradient id="b4e83516-8a96-40e2-bc86-4cf4408de284" x1="127" y1="664.75" x2="673" y2="118.75" xlink:href="#ec4fa4ed-765c-4876-967f-3f0d3453f730"/><linearGradient id="a5ccbd47-d6a5-409d-9bcc-9a554ea7fb60" x1="127" y1="681.25" x2="673" y2="135.25" xlink:href="#ec4fa4ed-765c-4876-967f-3f0d3453f730"/><linearGradient id="eee79a45-cfc6-4ddf-9a1f-143102400fec" x1="127" y1="697.74" x2="673" y2="151.74" xlink:href="#ec4fa4ed-765c-4876-967f-3f0d3453f730"/><linearGradient id="f6723179-dae5-432a-b51a-ee442ead57ac" x1="127" y1="714.23" x2="673" y2="168.23" xlink:href="#ec4fa4ed-765c-4876-967f-3f0d3453f730"/><linearGradient id="f3aebea6-105b-4f16-98e7-0a64feef64ab" x1="127" y1="730.72" x2="673" y2="184.72" xlink:href="#ec4fa4ed-765c-4876-967f-3f0d3453f730"/><linearGradient id="b653a5ec-0be8-4d18-a754-8e29f571d92e" x1="127" y1="747.21" x2="673" y2="201.21" xlink:href="#ec4fa4ed-765c-4876-967f-3f0d3453f730"/><linearGradient id="b11d617d-792b-4aa1-a4d8-666b6aadbe55" x1="127" y1="763.7" x2="673" y2="217.7" xlink:href="#ec4fa4ed-765c-4876-967f-3f0d3453f730"/><linearGradient id="f6636434-0b00-4f9b-a39a-0bad9ec74091" x1="127" y1="780.19" x2="673" y2="234.19" xlink:href="#ec4fa4ed-765c-4876-967f-3f0d3453f730"/><linearGradient id="b5b28fd2-df30-42d9-83a5-24640c672936" x1="127" y1="796.68" x2="673" y2="250.68" xlink:href="#ec4fa4ed-765c-4876-967f-3f0d3453f730"/><linearGradient id="ec50da7a-1c97-4823-b79d-8a8a9f3560d7" x1="127" y1="813.17" x2="673" y2="267.17" xlink:href="#ec4fa4ed-765c-4876-967f-3f0d3453f730"/><linearGradient id="eea0312b-1957-4f68-a1b8-6070d72a12db" x1="127" y1="829.66" x2="673" y2="283.66" xlink:href="#ec4fa4ed-765c-4876-967f-3f0d3453f730"/><linearGradient id="e03baf60-7d02-4289-bc34-b7b42e5b61f4" x1="127" y1="846.15" x2="673" y2="300.15" xlink:href="#ec4fa4ed-765c-4876-967f-3f0d3453f730"/><linearGradient id="ae8c0472-ebfc-44de-93d0-aa1ddff04582" x1="127" y1="862.64" x2="673" y2="316.64" xlink:href="#ec4fa4ed-765c-4876-967f-3f0d3453f730"/><linearGradient id="e3e706ff-0e39-4eba-9577-2eaf3ca72bfb" x1="127" y1="879.13" x2="673" y2="333.13" xlink:href="#ec4fa4ed-765c-4876-967f-3f0d3453f730"/><linearGradient id="bc1a794f-c7d0-4603-8414-aff9f8c86214" x1="127" y1="895.62" x2="673" y2="349.62" xlink:href="#ec4fa4ed-765c-4876-967f-3f0d3453f730"/><linearGradient id="e0c22084-e766-485c-8c8e-abf56f982890" x1="127" y1="912.12" x2="673" y2="366.12" xlink:href="#ec4fa4ed-765c-4876-967f-3f0d3453f730"/><linearGradient id="a4fafa27-7d06-42bd-a6b1-53fb1c53edb5" x1="127" y1="928.61" x2="673" y2="382.61" xlink:href="#ec4fa4ed-765c-4876-967f-3f0d3453f730"/><linearGradient id="b16aa7f6-3c4a-4190-8d76-0e29321ab920" x1="127" y1="945.1" x2="673" y2="399.1" xlink:href="#ec4fa4ed-765c-4876-967f-3f0d3453f730"/><linearGradient id="bd907cac-c38c-4696-af38-ae01931027a4" x1="127" y1="961.59" x2="673" y2="415.59" xlink:href="#ec4fa4ed-765c-4876-967f-3f0d3453f730"/><linearGradient id="b8fd298e-7fa3-486c-a9b7-d0d14793daf8" x1="127" y1="978.08" x2="673" y2="432.08" xlink:href="#ec4fa4ed-765c-4876-967f-3f0d3453f730"/><linearGradient id="bdad521c-bbc7-4a01-9bfc-4a1ff7847f89" x1="127" y1="994.57" x2="673" y2="448.57" xlink:href="#ec4fa4ed-765c-4876-967f-3f0d3453f730"/><linearGradient id="b934cbef-ffa5-4567-b1f0-ec8e14e5e4e0" x1="127" y1="1011.06" x2="673" y2="465.06" xlink:href="#ec4fa4ed-765c-4876-967f-3f0d3453f730"/><linearGradient id="fdb81c7f-d0a7-4b90-8f04-9c71e203be03" x1="127" y1="1027.55" x2="673" y2="481.55" xlink:href="#ec4fa4ed-765c-4876-967f-3f0d3453f730"/><linearGradient id="b40f958d-d429-43c0-a384-b299d5d2e696" x1="127" y1="1044.04" x2="673" y2="498.04" xlink:href="#ec4fa4ed-765c-4876-967f-3f0d3453f730"/><linearGradient id="b72ac423-2800-428a-9b8b-6425e45bd7aa" x1="127" y1="1060.53" x2="673" y2="514.53" xlink:href="#ec4fa4ed-765c-4876-967f-3f0d3453f730"/><linearGradient id="b4d1ead9-31cf-42d7-9034-d1615e3abf4b" x1="127" y1="1077.02" x2="673" y2="531.02" xlink:href="#ec4fa4ed-765c-4876-967f-3f0d3453f730"/><linearGradient id="a5a549fb-b471-4d23-be63-124cb4a778b6" x1="127" y1="1093.51" x2="673" y2="547.51" xlink:href="#ec4fa4ed-765c-4876-967f-3f0d3453f730"/></defs><title>colinwilson.uk_logo_v4.3</title><g class="a80bfd1d-b811-42c2-99bf-384e5b8cd0a4"><path class="b99b686e-9f29-4719-be28-2104827ad38e" d="M-160-36.51c112,0,112,32,224,32s112-32,224-32,112,32,224,32,112-32,224-32,112,32,224,32" transform="translate(160 38.51)"/><path class="a24fc78b-edfe-48f8-a08e-1e0a92dd2b6d" d="M-160-20C-48-20-48,12,64,12S176-20,288-20,400,12,512,12,624-20,736-20,848,12,960,12" transform="translate(160 38.51)"/><path class="b79af71b-153b-42ca-b989-62994e46f1a0" d="M-160-3.53c112,0,112,32,224,32s112-32,224-32,112,32,224,32,112-32,224-32,112,32,224,32" transform="translate(160 38.51)"/><path class="af21b908-a9c4-4073-93d6-e88afc760418" d="M-160,13C-48,13-48,45,64,45S176,13,288,13,400,45,512,45,624,13,736,13,848,45,960,45" transform="translate(160 38.51)"/><path class="e9c2fd64-cec3-4fbd-b64d-0f2bc7d87ce6" d="M-160,29.45c112,0,112,32,224,32s112-32,224-32,112,32,224,32,112-32,224-32,112,32,224,32" transform="translate(160 38.51)"/><path class="bcd8c7b3-5431-4a48-ae73-34ca57d7dc9a" d="M-160,45.94c112,0,112,32,224,32s112-32,224-32,112,32,224,32,112-32,224-32,112,32,224,32" transform="translate(160 38.51)"/><path class="bf7b5536-82e5-4943-a78a-edff4d6837ec" d="M-160,62.43c112,0,112,32,224,32s112-32,224-32,112,32,224,32,112-32,224-32,112,32,224,32" transform="translate(160 38.51)"/><path class="faec887a-f8c0-49aa-b119-8a2a403c4ec6" d="M-160,78.92c112,0,112,32,224,32s112-32,224-32,112,32,224,32,112-32,224-32,112,32,224,32" transform="translate(160 38.51)"/><path class="ad614c89-efd9-4da8-a6a9-f48fd4c1a842" d="M-160,95.41c112,0,112,32,224,32s112-32,224-32,112,32,224,32,112-32,224-32,112,32,224,32" transform="translate(160 38.51)"/><path class="bfdc6638-bf2c-4b7d-b114-827c04514062" d="M-160,111.9c112,0,112,32,224,32s112-32,224-32,112,32,224,32,112-32,224-32,112,32,224,32" transform="translate(160 38.51)"/><path class="bcf969c1-355f-4821-87ad-9081c98a31df" d="M-160,128.39c112,0,112,32,224,32s112-32,224-32,112,32,224,32,112-32,224-32,112,32,224,32" transform="translate(160 38.51)"/><path class="b6af3d49-bc5b-476c-b6ad-df03ed543d9a" d="M-160,144.88c112,0,112,32,224,32s112-32,224-32,112,32,224,32,112-32,224-32,112,32,224,32" transform="translate(160 38.51)"/><path class="bc3cd0d5-a708-4346-a853-28c06b793e86" d="M-160,161.38c112,0,112,32,224,32s112-32,224-32,112,32,224,32,112-32,224-32,112,32,224,32" transform="translate(160 38.51)"/><path class="bbf118c8-0b33-47df-a4d4-9f9b728bd740" d="M-160,177.87c112,0,112,32,224,32s112-32,224-32,112,32,224,32,112-32,224-32,112,32,224,32" transform="translate(160 38.51)"/><path class="fb1bc153-9150-406f-a772-0e5b219d63d2" d="M-160,194.36c112,0,112,32,224,32s112-32,224-32,112,32,224,32,112-32,224-32,112,32,224,32" transform="translate(160 38.51)"/><path class="b3c7e9b7-977b-40e4-876b-e5ac421fa8e4" d="M-160,210.85c112,0,112,32,224,32s112-32,224-32,112,32,224,32,112-32,224-32,112,32,224,32" transform="translate(160 38.51)"/><path class="e53b627a-6766-46c1-be32-6841a73ff3dc" d="M-160,227.34c112,0,112,32,224,32s112-32,224-32,112,32,224,32,112-32,224-32,112,32,224,32" transform="translate(160 38.51)"/><path class="a831bbf1-ad71-4c53-aa30-47e96278a540" d="M-160,243.83c112,0,112,32,224,32s112-32,224-32,112,32,224,32,112-32,224-32,112,32,224,32" transform="translate(160 38.51)"/><path class="f213c1d3-caae-4f53-aa2f-26b163b09d96" d="M-160,260.32c112,0,112,32,224,32s112-32,224-32,112,32,224,32,112-32,224-32,112,32,224,32" transform="translate(160 38.51)"/><path class="f6c4c964-75bf-4f87-9fcd-c99e048bba09" d="M-160,276.81c112,0,112,32,224,32s112-32,224-32,112,32,224,32,112-32,224-32,112,32,224,32" transform="translate(160 38.51)"/><path class="f4ff2e3d-d9e1-4cd0-ab64-a74306217e50" d="M-160,293.3c112,0,112,32,224,32s112-32,224-32,112,32,224,32,112-32,224-32,112,32,224,32" transform="translate(160 38.51)"/><path class="bb30dcd1-9013-4174-8194-5b6587e093de" d="M-160,309.79c112,0,112,32,224,32s112-32,224-32,112,32,224,32,112-32,224-32,112,32,224,32" transform="translate(160 38.51)"/><path class="a1dedb85-a4e8-43d0-bb5d-847524a75d23" d="M-160,326.28c112,0,112,32,224,32s112-32,224-32,112,32,224,32,112-32,224-32,112,32,224,32" transform="translate(160 38.51)"/><path class="f669e386-ad17-4897-bb2f-2ecb49587eb7" d="M-160,342.77c112,0,112,32,224,32s112-32,224-32,112,32,224,32,112-32,224-32,112,32,224,32" transform="translate(160 38.51)"/><path class="fe503db7-6f12-440f-b258-5035b0d8849d" d="M-160,359.26c112,0,112,32,224,32s112-32,224-32,112,32,224,32,112-32,224-32,112,32,224,32" transform="translate(160 38.51)"/><path class="b409296e-8360-492d-9992-4ece015cfe66" d="M-160,375.75c112,0,112,32,224,32s112-32,224-32,112,32,224,32,112-32,224-32,112,32,224,32" transform="translate(160 38.51)"/><path class="ad474023-4bfe-410f-95b1-a2cf5f89655f" d="M-160,392.25c112,0,112,32,224,32s112-32,224-32,112,32,224,32,112-32,224-32,112,32,224,32" transform="translate(160 38.51)"/><path class="a675d0e9-e247-4caf-b210-cadf328eb1f1" d="M-160,408.74c112,0,112,32,224,32s112-32,224-32,112,32,224,32,112-32,224-32,112,32,224,32" transform="translate(160 38.51)"/><path class="aabe2a5c-e12c-44cb-9381-80dfda5fc331" d="M-160,425.23c112,0,112,32,224,32s112-32,224-32,112,32,224,32,112-32,224-32,112,32,224,32" transform="translate(160 38.51)"/><path class="a5c27f71-458b-4230-b258-64290ed1771a" d="M-160,441.72c112,0,112,32,224,32s112-32,224-32,112,32,224,32,112-32,224-32,112,32,224,32" transform="translate(160 38.51)"/><path class="a13bd972-8ab3-4e8f-adf6-7179f540359f" d="M-160,458.21c112,0,112,32,224,32s112-32,224-32,112,32,224,32,112-32,224-32,112,32,224,32" transform="translate(160 38.51)"/><path class="bc49881b-986f-4cf0-a4a9-5947aeba851e" d="M-160,474.7c112,0,112,32,224,32s112-32,224-32,112,32,224,32,112-32,224-32,112,32,224,32" transform="translate(160 38.51)"/><path class="b6e4ed25-696b-46aa-9a6a-8cd18067e568" d="M-160,491.19c112,0,112,32,224,32s112-32,224-32,112,32,224,32,112-32,224-32,112,32,224,32" transform="translate(160 38.51)"/><path class="bbf217bd-afc9-4f38-b611-0f6c3f60865d" d="M-160,507.68c112,0,112,32,224,32s112-32,224-32,112,32,224,32,112-32,224-32,112,32,224,32" transform="translate(160 38.51)"/><path class="bc2f3f3d-51d7-4c0f-93fb-b5bb5215fbd0" d="M-160,524.17c112,0,112,32,224,32s112-32,224-32,112,32,224,32,112-32,224-32,112,32,224,32" transform="translate(160 38.51)"/><path class="bbfc791f-3a11-4201-b093-4773a11fc2e5" d="M-160,540.66c112,0,112,32,224,32s112-32,224-32,112,32,224,32,112-32,224-32,112,32,224,32" transform="translate(160 38.51)"/><path class="ee3e049a-5462-4323-82d9-7d139a8f3cd5" d="M-160,557.15c112,0,112,32,224,32s112-32,224-32,112,32,224,32,112-32,224-32,112,32,224,32" transform="translate(160 38.51)"/><path class="fd5daffe-0202-44c9-a929-e37ea6520d17" d="M-160,573.64c112,0,112,32,224,32s112-32,224-32,112,32,224,32,112-32,224-32,112,32,224,32" transform="translate(160 38.51)"/><path class="a4839fcb-1aa7-4052-b365-b93e7011bf06" d="M-160,590.13c112,0,112,32,224,32s112-32,224-32,112,32,224,32,112-32,224-32,112,32,224,32" transform="translate(160 38.51)"/><path class="aea6f51a-6689-4f07-9f57-5d65a4f7cf0a" d="M-160,606.62c112,0,112,32,224,32s112-32,224-32,112,32,224,32,112-32,224-32,112,32,224,32" transform="translate(160 38.51)"/><path class="a732621e-7438-417f-a6c7-7053f5420acd" d="M-160,623.12c112,0,112,32,224,32s112-32,224-32,112,32,224,32,112-32,224-32,112,32,224,32" transform="translate(160 38.51)"/><path class="e9014772-c7df-4162-8fdc-f8c4f519b878" d="M-160,639.61c112,0,112,32,224,32s112-32,224-32,112,32,224,32,112-32,224-32,112,32,224,32" transform="translate(160 38.51)"/><path class="b66e9b0c-e495-4013-92f0-990705a14345" d="M-160,656.1c112,0,112,32,224,32s112-32,224-32,112,32,224,32,112-32,224-32,112,32,224,32" transform="translate(160 38.51)"/><path class="ef1a6ff6-9d32-41be-a0ea-5f6a002b1035" d="M-160,672.59c112,0,112,32,224,32s112-32,224-32,112,32,224,32,112-32,224-32,112,32,224,32" transform="translate(160 38.51)"/><path class="f1eaf839-fe2f-4fcd-9426-ba7ad93969dd" d="M-160,689.08c112,0,112,32,224,32s112-32,224-32,112,32,224,32,112-32,224-32,112,32,224,32" transform="translate(160 38.51)"/><path class="e2586949-e5f8-4dfd-ad75-6e5bcbca210e" d="M-160,705.57c112,0,112,32,224,32s112-32,224-32,112,32,224,32,112-32,224-32,112,32,224,32" transform="translate(160 38.51)"/><path class="aa91e6a7-687d-4662-9539-672696251365" d="M-160,722.06c112,0,112,32,224,32s112-32,224-32,112,32,224,32,112-32,224-32,112,32,224,32" transform="translate(160 38.51)"/><path class="fede679e-86b6-4ab0-9900-89e00691fc3e" d="M-160,738.55c112,0,112,32,224,32s112-32,224-32,112,32,224,32,112-32,224-32,112,32,224,32" transform="translate(160 38.51)"/><path class="b357d7f7-b1a4-44a1-b311-fbd995685d6a" d="M-160,755c112,0,112,32,224,32s112-32,224-32,112,32,224,32,112-32,224-32,112,32,224,32" transform="translate(160 38.51)"/><path class="b81a0675-7ac3-4a0a-9328-ca960f4b46d0" d="M-160,771.53c112,0,112,32,224,32s112-32,224-32,112,32,224,32,112-32,224-32,112,32,224,32" transform="translate(160 38.51)"/><path class="b811dc41-031a-4af4-89c2-48287bbfaa5f" d="M-160,788c112,0,112,32,224,32s112-32,224-32,112,32,224,32,112-32,224-32,112,32,224,32" transform="translate(160 38.51)"/><path class="e91d4387-abe6-4f46-9eca-fd688146f224" d="M-160,804.51c112,0,112,32,224,32s112-32,224-32,112,32,224,32,112-32,224-32,112,32,224,32" transform="translate(160 38.51)"/></g></svg>