<svg xmlns="http://www.w3.org/2000/svg" viewBox="0 0 1457.37 648"><defs><style>.cls-1{fill:#262626;}.cls-2{fill:#333;}.cls-3{fill:#404040;}</style></defs><title>colinwilson.uk_logo_2020_no_margin</title><path d="M266 620.6c6.68 15.06 25.68 27.4 42.18 27.4h228c16.5 0 24.52-12.34 17.82-27.4L290.36 27.4C283.68 12.35 264.68 0 248.18 0h-228C3.68 0-4.32 12.34 2.36 27.4z" class="cls-1"/><path d="M738.36 620.6c-6.68 15.06-25.68 27.4-42.18 27.4h-228c-16.5 0-24.52-12.34-17.82-27.4L714 27.4C720.68 12.35 739.68 0 756.18 0h228c16.5 0 24.52 12.34 17.82 27.4z" class="cls-2"/><path d="M1191.36 620.6c-6.68 15.06-25.68 27.4-42.18 27.4h-228c-16.5 0-24.52-12.34-17.82-27.4L1167 27.4c6.68-15.06 25.68-27.4 42.18-27.4h228c16.5 0 24.52 12.34 17.82 27.4z" class="cls-3"/></svg>