<svg id="ae4d0238-6ef7-4053-99b2-865fc7915e18" data-name="Layer 2" xmlns="http://www.w3.org/2000/svg" viewBox="0 0 190.3 224"><defs><style>.eaae2093-9b3b-4dc7-a968-ea30948431e8{fill:#00f7ef;}.f8669341-55c0-4e05-bb11-bfa55e010a28{fill:#ff004f;}.f626719e-f32c-4dce-aca3-4c416de1ff9c{fill:#333;}</style></defs><path class="eaae2093-9b3b-4dc7-a968-ea30948431e8" d="M175,287a102,102,0,1,1,88.3-153l-44.1,25.5a51,51,0,1,0,0,51L263.3,236A102.21,102.21,0,0,1,175,287Z" transform="translate(-73 -63)"/><path class="f8669341-55c0-4e05-bb11-bfa55e010a28" d="M175,267a102,102,0,1,1,88.3-153l-44.1,25.5a51,51,0,1,0,0,51L263.3,216A102.21,102.21,0,0,1,175,267Z" transform="translate(-73 -63)"/><path class="f626719e-f32c-4dce-aca3-4c416de1ff9c" d="M175,277a102,102,0,1,1,88.3-153l-44.1,25.5a51,51,0,1,0,0,51L263.3,226A102.21,102.21,0,0,1,175,277Z" transform="translate(-73 -63)"/></svg>