<svg xmlns="http://www.w3.org/2000/svg" width="125" height="125" viewBox="0 0 125 125"><linearGradient id="a" gradientUnits="userSpaceOnUse" x1="54" y1="121.7" x2="54" y2="3.3"><stop offset="0" stop-color="#0095FF"/><stop offset="1" stop-color="#0043FF"/></linearGradient><path fill="url(#a)" d="M64.1 121.7c-34.2 0-61-25.9-61-58.9 0-33.4 26.2-59.5 59.5-59.5h.1c12.9 0 25.8 4.7 39.2 14.5l2.4 1.7-15.9 24.5-2.7-2c0-.1-11.8-9-22.2-9-16.5 0-30.5 13.5-30.5 29.5 0 16.3 13.3 29.5 29.5 29.5 7.4 0 14.4-2.7 19.9-7.7l2.3-2.1 12.4 13.8-2.3 2.1c-8.9 8.1-20.4 12.6-32.4 12.6-26.5 0-48.1-21.6-48.1-48.1s21.6-48.1 48.1-48.1c9.2 0 18.1 2.6 25.9 7.5l-3.3 5.2c-6.7-4.3-14.5-6.6-22.5-6.6-23.1 0-41.9 18.8-41.9 41.9s18.8 41.9 41.9 41.9c9.4 0 18.5-3.2 25.9-9l-4.1-4.6c-6.2 4.7-13.8 7.3-21.6 7.3-19.7 0-35.7-16-35.7-35.7 0-19.3 16.8-35.7 36.7-35.7 9.3 0 18.7 5.3 23.3 8.3l9.1-14.1c-11.7-7.6-22.6-11.4-33.4-11.4-29.9 0-53.3 23.5-53.3 53.3 0 29.6 24.1 52.7 54.8 52.7 12.4 0 24.7-5.4 36.6-16l4.1 4.6c-13.1 11.7-26.8 17.6-40.8 17.6z"/></svg>