<svg xmlns="http://www.w3.org/2000/svg" viewBox="0 0 350 350" enable-background="new 0 0 350 350"><style type="text/css">.st0{fill:#4A63FF;} .st1{fill:#4A72FF;} .st2{fill:#4083FF;} .st3{fill:#4A8DFF;} .st4{fill:#4A74FF;} .st5{fill:#4A86FF;} .st6{display:none;fill:#00599C;} .st7{display:none;fill:#004482;} .st8{display:none;fill:#659AD2;} .st9{fill:#FFFFFF;}</style><path d="M28.8 259.4c-2.6-4.5-3.9-9-3.9-13.3V102.7c.6-5.5 2.3-9.2 3.9-12l.5-.9 146.2 84.3-1 1.7L30.1 92.6c-1.1 2-2.7 5.3-3.2 10.3v143.2c0 4 1.2 8.1 3.7 12.3l-1.8 1zM29.7 258.9c-2.6-4.5-3.8-8.8-3.8-12.8V102.8c.6-5.8 2.6-9.5 3.8-11.6L175 175" class="st0"/><path d="M176 175h-2V8.2c-2.2 0-5.9.3-10.5 2.4L39.4 82.3c-3.3 1.9-6.2 4.9-8.8 9.3l-1.7-1c2.8-4.7 5.9-8 9.6-10.1L162.6 8.8c5.8-2.6 10.4-2.6 12.4-2.6h1V175zM29.7 91.1c2.7-4.5 5.7-7.7 9.2-9.7L163.1 9.7c5.3-2.4 9.5-2.5 11.9-2.5V175" class="st1"/><path d="M175.5 175.9l-1-1.7 144.4-83.4c-1.1-1.9-3.3-5-7.3-7.9L187.5 11.2c-3.3-1.9-7.4-2.9-12.5-3v-2c5.4.1 9.9 1.2 13.5 3.2l124.3 71.8c5.1 3.7 7.4 7.7 8.4 9.4l.5.9-146.2 84.4zM175 7.2c5.2.1 9.5 1.1 13 3.1L312.2 82c4.7 3.4 6.9 7 8.1 9.1L175 175" class="st2"/><path d="M320.7 260.2l-146.2-84.3 1-1.7 144.4 83.3c1.1-2 2.7-5.3 3.2-10.3V103.9c0-4-1.2-8.1-3.7-12.3l1.7-1c2.6 4.5 3.9 9 3.9 13.3v143.4c-.6 5.5-2.3 9.2-3.9 12l-.4.9zM320.3 91.1c2.6 4.5 3.8 8.8 3.8 12.8v143.3c-.6 5.8-2.6 9.5-3.8 11.6L175 175" class="st3"/><path d="M175.1 343.8h-1V175h2v166.8c2.2 0 5.9-.3 10.5-2.4l124-71.7c3.3-1.9 6.2-4.9 8.8-9.3l1.7 1c-2.8 4.7-5.9 8-9.6 10.1l-124.1 71.7c-5.7 2.6-10.3 2.6-12.3 2.6zM320.3 258.9c-2.7 4.5-5.7 7.7-9.2 9.7L187 340.3c-5.3 2.4-9.5 2.5-11.9 2.5V175" class="st4"/><path d="M175 343.8c-5.4-.1-9.9-1.2-13.5-3.2L37.2 268.8c-5.1-3.7-7.4-7.7-8.4-9.4l-.5-.9 146.2-84.4 1 1.7-144.4 83.5c1.1 1.9 3.3 5 7.3 7.9l124.2 71.7c3.3 1.9 7.4 2.9 12.5 3l-.1 1.9zM175 342.8c-5.2-.1-9.5-1.1-13-3.1L37.8 268c-4.7-3.4-6.9-7-8.1-9.1L175 175" class="st5"/><path d="M324.1 261.1c2.4-4.2 3.9-8.8 3.9-13.1V102c0-4.2-1.5-8.9-3.9-13.1L175 175l149.1 86.1z" class="st6"/><path d="M188.3 344l126.5-73c3.6-2.1 7-5.7 9.4-9.9L175 175 25.9 261.1c2.4 4.2 5.7 7.8 9.4 9.9l126.5 73c7.2 4.2 19.2 4.2 26.5 0z" class="st7"/><path d="M324.1 88.9c-2.4-4.2-5.7-7.8-9.4-9.9L188.3 6C181 1.8 169 1.8 161.8 6L35.3 79C28 83.2 22 93.6 22 102v146c0 4.2 1.5 8.9 3.9 13.1L175 175l149.1-86.1z" class="st8"/><path d="M175 277c-56.2 0-102-45.8-102-102S118.8 73 175 73c36.3 0 70.1 19.5 88.3 51l-44.1 25.5c-9.1-15.7-26-25.5-44.2-25.5-28.1 0-51 22.9-51 51s22.9 51 51 51c18.2 0 35.1-9.8 44.2-25.5l44.1 25.5c-18.2 31.5-52 51-88.3 51z" class="st9"/></svg>