<svg xmlns="http://www.w3.org/2000/svg" width="430" height="80" viewBox="0 0 430 80"><path d="M29.2 68.7c-3.4 0-6.5-.9-9.4-2.4-3.5-1.9-5.5-4.8-6.1-8.8-.4-3.2.1-6.5 1.4-9.9.9-2.3 2.1-4.5 3.7-6.8 7.6-11.1 17.7-18.6 29.5-23 3.2-1.2 6.6-2.2 10.1-2.7 1-.1 2-.1 2.8-.3.4-.1.6-.1.9-.1 2.2 0 4 0 5.8.5 2.5.7 4.4 1.9 5.8 3.7 1.7 2.1 1.9 4.2 1.1 6.5-.4 1.1-.9 2.2-1.6 3.5-.2.4-.6.7-1 .7-.1 0-.3-.1-.5-.1-.5-.1-.7-.9-.6-1.5.1-.3.2-.6.4-.9l.2-.4.2-.6c.1-.4.4-.9.6-1.3.6-1.8.4-3.3-.9-4.8-1.3-1.4-3-2.3-5.5-2.8-1.1-.2-2.2-.4-3.5-.4-2 0-4 .3-6.6.9-14.3 3.7-26.1 11.4-34.8 23.3-1.7 2.4-3 4.6-3.9 6.9-1.1 2.6-1.4 5.1-1.4 7.7 0 1 .2 2.1.5 3.2.4 1.8 1.6 3.3 3.2 4.4 2.5 1.7 5.3 2.9 8.3 2.9h1.9c2.5 0 5.3-.3 8.6-1 7.2-1.6 14-3.9 19.8-6 5.3-2 10.8-4.2 16.1-6l10.1-3.7c1.2-.4 2.4-.9 3.6-1.4.7-.3 1.4-.5 2.1-.9l.1-.1c.4-.1.6-.3 1-.3h.2c.4 0 .7.1.9.5.2.5.1 1.1-.3 1.4-.4.4-.9.6-1.5.9-2.7 1-5 2-7.4 2.9-9.3 3.4-19.2 7.2-29.2 10.8-5.3 1.9-10.7 3.5-16 4.5-2.2.4-5.2.9-8.2.9l-.5.1zM86.8 55.7c-.6-.7-.7-1.7-.4-2.7.1-.6.4-1.1.6-1.6 1.2-1.9 2.7-3.7 5-5.6.7-.6 1.5-.9 2.2-.9 1.7 0 3 1.4 3.3 3.4v.30000000000000004c0 .4.2 1.4 1.3 1.4.1 0 .4-.1.6-.1.6 0 1.2-.1 1.9-.3 2.4-.6 4.6-.9 6.8-1.5.6-.1 1.1-.3 1.7-.6.4-.1.7-.2 1.2-.2h.4c.5 0 .9.4 1 .9.1.3-.1.9-.5 1.2-.4.2-.7.4-1.4.5-1.2.3-2.4.5-3.5.8-3.2.8-6.5 1.7-9.9 1.7-.6 0-1.2.3-1.7.8l-.1.1c-.6.6-1 1.2-1.6 1.7-1.4 1.2-2.8 1.9-4.5 1.7-.9 0-1.8-.3-2.4-1zm3-1.3c1-.1 1.8-.5 2.4-1.2.2-.2.2-.4.2-.6v-.2l-.1-.1c0-.1 0-.3-.1-.4-.7-.4-1.1-.8-1.6-.8-.6 0-1.2.4-1.6 1.3l-.3.8c-.1.2.1.4.2.7s.5.5.9.5zm4.2-4.7c.6 0 1.2-.4 1.2-.9 0-.4-.1-.7-.3-.9-.2-.2-.4-.4-.7-.4-.4 0-.7.1-1.1.5-.2.2-.3.5-.3.8-.1.8.8.9 1.2.9zM109.1 57.1c-.6-.6-.9-1.5-.9-2.6.1-1.6.4-3 .9-4.4.7-1.8 1.7-3.5 2.7-5.3 4-6.5 8.8-12.5 14.3-17.6l.1-.1c.6-.6 1.3-1.3 2.2-1.7.2-.1.4-.2.6-.2.1 0 .4.1.6.2.3.2.4.4.5.7.1.3-.1.6-.3.9-.1.1-.2.3-.4.4-4 3.5-7.8 7.6-11.7 13-2.1 2.9-4.2 6-5.9 9.6-.5 1.2-.9 2.2-1.1 3.3-.1.9-.1 1.6.4 2 .3.3.6.4 1.2.4.2 0 .5 0 .9-.1 1.2-.1 2.2-.5 3.4-1l3.5-1.4c3-1.2 5.9-2.5 8.9-3.8.4-.1.7-.4 1-.6.1-.1.2-.1.4-.1.3-.2.6-.4.9-.4.4 0 .6.1.8.5.4.6.3 1.4-.3 1.9-.2.2-.6.4-.9.5l-1.3.5-.8.4-2.7 1.2-7.8 3.3c-1.3.6-3 1.2-5 1.5h-.4c-.1.1-.2.1-.4.1h-.4c-1.2 0-2.3-.4-3-1.1zM128.9 54.4c0-.4.1-.9.1-1.5.3-1.4.8-2.7 1.6-4.5.3-.4.5-.9.9-1.2.2-.1.4-.2.6-.2.1 0 .4 0 .6.1.3.1.5.6.5 1s-.1.8-.4 1.2c-.6 1.3-1.1 2.5-1.4 3.7-.1.4 0 .8.2 1.1.1.3.5.4.9.4h.3c.4-.1.7-.2 1.2-.4 1.4-.5 3-1 4.5-1.4 3.5-1.2 7.1-2.4 10.7-3.7l.3-.1c.9-.4 3.7-1.6 4.3-1.2.2.7 0 1.3-.6 1.8-.7.6-1.5 1-2.2 1.2-1.2.4-2.4.9-3.5 1.3-2.4.9-4.8 1.9-7.2 2.5-1.3.4-2.6.8-3.8 1.2-.7.2-1.4.5-2 .7l-.2.1c-.8.2-1.6.5-2.2.5h-.2c-2.1.1-3-.8-3-2.6zm5.9-15c-.2-.4-.2-.8 0-1.2.1-.2.3-.4.5-.7 1.3-1.1 2.4-1.9 3.5-2.6.4-.2.7-.4 1.1-.4h.2c.4 0 .9.3 1.1.8.1.4.1.8-.4 1.2-.1.1-.2.2-.4.3-1.3.7-2.5 1.7-3.6 2.6l-.1.1c-.4.3-.6.5-.9.5h-.1c-.3-.1-.7-.3-.9-.6zM168.4 56.5c-.4-.5-.6-1.2-.5-2.1l.4-1.5c.1-.4.1-.6.2-.9.1-.6 0-.9-.1-1.2-.1-.2-.4-.4-.9-.4l-.4.1c-1.1.2-1.9.4-2.6.6-1.9.6-3.7 1.4-5.5 2l-3.6 1.3c-.6.2-1.2.4-1.9.6-.4.1-.9.2-1.3.4-.4.1-.9.2-1.4.2h-.6c-.6 0-1-.2-1.3-.6-.3-.4-.4-.9-.4-1.4.1-.4.3-.9.4-1.2.5-1.3 1.2-2.4 1.9-3.5l.4-.6 1.4-1.8c.1-.2.3-.4.5-.6.2-.1.5-.3.8-.3.2 0 .4.1.6.2.4.2.5.8.4 1.2-.1.4-.4.9-.7 1.3l-.2.3c-.2.4-.5.7-.7 1l-1.1 1.7c-.2.3-.3.8 0 1.2.3.3.6.3.8.3.1 0 .2 0 .3-.1l3-1.1 2.7-1 4.6-1.6c1.2-.4 2.5-.8 3.8-1 .4-.1.9-.1 1.3-.1h.1c1.2 0 1.9.6 2.2 1.8.1.2.1.4.1.7v.4c0 .4-.1.8-.2 1.2l-.2.9v.1c-.1.3-.1.7.2 1.1.2.2.5.3.7.3.3 0 .5-.1.7-.1 0 0 .3-.1.4-.2l.5-.2 3-1.3 6.3-2.8 1.5-.6 1-.4c.4-.1.8-.2 1.2-.2h.1c.6 0 .9.3 1.1.9.1.4-.1 1-.6 1.2l-.2.1h-.1c-2.1.7-4.1 1.7-6 2.5l-3.8 1.7-2.6 1.1-1.8.9c-.6.2-1.2.4-1.8.5h-.4c-.7-.3-1.3-.5-1.7-1zM199.7 63.1c-.1-.3-.1-.6-.1-.7v-.1c0-1.4.2-2.5.6-4 .7-2 1.7-4.2 3-6.7 4.4-8.3 9.3-16.1 14.5-23.4 2.9-3.9 5.8-7.6 8.7-11.1 1.7-1.9 3-3.3 4.2-4.6l1.4-1.1c.3-.1.5-.2.7-.2.4 0 .6.2.9.4.4.4.4 1.2-.1 1.7-.1.1-.2.3-.4.4-1 .5-1.7 1.3-2.4 2.1l-.4.4c-3.5 3.7-6.8 8.1-11 13.9-4.5 6.2-8.8 13-13.1 20.9-1.3 2.4-2.3 4.5-3.1 6.4-.4 1-.9 2.3-1.1 3.7-.1.4-.1.9-.1 1.4 0 .9.6 1.4 1.4 1.4h.2c.7 0 1.4-.2 2.2-.6l.4-.2c1.4-.8 2.9-1.5 4.2-2.4 5.9-3.7 11.8-7.7 17.4-11.6l.4-.3c8.6-5.9 17.9-12.2 27.2-17.9 1.7-1.1 3.5-2.1 5.3-3 1.4-.6 2.7-1.1 4-1.4.5-.1 1-.2 1.6-.2h.8c1.3.1 2.2 1.1 2.4 2.4.1.9 0 1.7-.2 2.4-.5 1.8-1.2 3.5-1.9 4.8-.3.8-.6 1.5-1 2.3-1.6 3.5-3.2 7.1-4.6 10.7l-.1.3c-.9 2.3-1.8 4.6-2.3 7.1 0 .1-.1.2-.1.4-.1.4-.4 1.2.2 1.7.2.3.5.4.9.4s.9-.2 1.2-.4c.1-.1.2-.1.3-.1 1.2-.6 2.4-1.3 3.6-2 4.2-2.6 8.2-5.8 12.1-8.7v-.1c4.6-3.6 9.1-7.5 13.5-11.2l3.1-2.7c4.4-3.7 8.9-7.5 13.2-11.2l6-5 .1-.1c.6-.5 1.2-1 1.7-1.7.4-.6 1.2-1.1 1.9-1.6l.7-.3h.3c.4 0 .6.1.8.4.3.4.4.9.1 1.3-.3.4-.6.8-1.1 1.2l-.2.1c-1.4 1.2-2.8 2.4-4.2 3.5l-6.6 5.5c-2.7 2.2-5.3 4.5-8 6.8-4 3.3-8 6.8-12 10.2-6.3 5.3-11.7 9.6-16.9 13.2-2.2 1.6-4.1 2.8-6 3.7-1.2.6-2.3 1.1-3.3 1.4-.4.1-.8.1-1.2.1-.4 0-.6-.1-.9-.1-1.4-.4-2-1.5-1.9-3.3.1-.7.2-1.5.4-2.3v-.4c.6-2.3 1.4-4.5 2.2-6.5 1.7-4.1 3.4-8.1 5.1-11.7l.1-.2c.7-1.7 1.5-3.4 2.2-5.2v-.1c.2-.5.4-1.1.4-1.7-.1-.5-.4-.9-1-.9h-.1c-.6 0-1.2.1-1.7.4-1.5.5-3.1 1.3-4.6 2.2-3.3 2-7.1 4.3-10.7 6.6-5.9 3.7-11.7 7.8-17.4 11.6l-7.6 5.2c-3.3 2.2-6.8 4.5-11.2 7.4-1.7 1.1-3.7 2.4-5.9 3.4-1 .4-2.1.9-3.2.9h-.3c-2.2-.1-3.4-1.2-3.6-3.3zM292.4 54.4c0-.4.1-.9.1-1.5.3-1.4.8-2.7 1.6-4.5.3-.4.5-.9.9-1.2.2-.1.4-.2.6-.2.1 0 .4 0 .6.1.3.1.5.6.5 1s-.1.8-.4 1.2c-.6 1.3-1.1 2.5-1.4 3.7-.1.4 0 .8.2 1.1.1.3.5.4.9.4h.3c.4-.1.7-.2 1.2-.4 1.4-.5 3-1 4.5-1.4 3.5-1.2 7.1-2.4 10.7-3.7l.3-.1c.9-.4 3.7-1.6 4.3-1.2.2.7 0 1.3-.6 1.8-.7.6-1.5 1-2.2 1.2-1.2.4-2.4.9-3.5 1.3-2.4.9-4.8 1.9-7.2 2.5-1.3.4-2.6.8-3.8 1.2-.7.2-1.4.5-2 .7l-.2.1c-.8.2-1.6.5-2.2.5h-.2c-2.1.1-3-.8-3-2.6zm6-15c-.2-.4-.2-.8 0-1.2.1-.2.3-.4.5-.7 1.3-1.1 2.4-1.9 3.5-2.6.4-.2.7-.4 1.1-.4h.2c.4 0 .9.3 1.1.8.1.4.1.8-.4 1.2-.1.1-.2.2-.4.3-1.3.7-2.5 1.7-3.6 2.6l-.1.1c-.4.3-.6.5-.9.5h-.1c-.4-.1-.8-.3-.9-.6zM314.8 57.1c-.6-.6-.9-1.5-.9-2.6.1-1.6.4-3 .9-4.4.7-1.8 1.7-3.5 2.7-5.3 4-6.5 8.8-12.5 14.3-17.6l.1-.1c.6-.6 1.3-1.3 2.2-1.7.2-.1.4-.2.6-.2.1 0 .4.1.6.2.3.2.4.4.5.7.1.3-.1.6-.3.9-.1.1-.2.3-.4.4-4 3.5-7.8 7.6-11.7 13-2.1 2.9-4.2 6-5.9 9.6-.5 1.2-.9 2.2-1.1 3.3-.1.9-.1 1.6.4 2 .3.3.6.4 1.2.4.2 0 .5 0 .9-.1 1.2-.1 2.2-.5 3.4-1l3.5-1.4c3-1.2 5.9-2.5 8.9-3.8.4-.1.7-.4 1-.6.1-.1.2-.1.4-.1.3-.2.6-.4.9-.4.4 0 .6.1.8.5.4.6.3 1.4-.3 1.9-.2.2-.6.4-.9.5l-1.3.5-.8.4-2.7 1.2-7.8 3.3c-1.3.6-3 1.2-5 1.5h-.4c-.1.1-.2.1-.4.1h-.4c-1.2 0-2.3-.4-3-1.1zM331.6 61.6c-.5-.1-1.1-.2-1.6-.5-.6-.4-1-.9-1.2-1.5-.1-.6 0-1.2.4-1.8.5-.8 1.3-1.3 2.1-1.7 1.4-.9 3.1-1.6 5.2-2.3l.7-.3 1.2-.4c.7-.3.9-.7.9-1-.4-1.1-.9-1-2.2-1.5l-.1-.1-.6-.3c-.3-.1-.5-.2-.7-.3-.3-.2-.6-.4-.9-.7-.6-.6-.8-2.1-.1-2.7l.3-.3c2.2-1.2 4.2-1.7 6.2-1.4.1.1.1.1.3.1.4.1.6.3.9.6.2.4.2.8.1 1.1-.2.4-.5.5-.9.6-.8 0-2.1-.3-2.5.4-.2.4-.2.8.1 1.1.9.9 2.4 1.5 3.1 2.3.2.3.5.5.9.5.2.1.5.1.7 0l1.9-.4 3-.7c3.1-.7 6.2-1.4 9.4-2.1.6-.1 1.2-.2 1.7-.3l.6-.1c.1 0 .4-.1.6 0 .6.1 1 .5 1.1 1.1.1.5-.3 1-.8 1.2-.4.1-.8.2-1.2.1-.9-.1-1.6.1-2.4.2-3.5.8-6.9 1.7-10.4 2.4l-2.4.5-.4.1c-.1 0-.2.1-.4.1-.8.1-1.4.6-1.7 1.5-1.3 3-3.6 5-7.4 6.2-.9.3-2 .4-3.2.2l-.3.1zm1.8-2.3h.4c1.4-.2 2.9-.9 4.1-1.9.2-.1.4-.6.3-.9-.1-.3-.4-.5-.7-.6-.1 0-.1 0-.3.1-1.4.4-2.9.9-4.2 1.8-.3.1-.4.5-.4.9.1.3.3.4.4.5l.2.2h.2zM357.3 55.7c-.6-.7-.7-1.7-.4-2.7.1-.6.4-1.1.6-1.6 1.2-1.9 2.7-3.7 5-5.6.7-.6 1.5-.9 2.2-.9 1.7 0 3 1.4 3.3 3.4v.30000000000000004c0 .4.2 1.4 1.3 1.4.1 0 .4-.1.6-.1.6 0 1.2-.1 1.9-.3 2.4-.6 4.6-.9 6.8-1.5.6-.1 1.1-.3 1.7-.6.4-.1.7-.2 1.2-.2h.4c.5 0 .9.4 1 .9.1.3-.1.9-.5 1.2-.4.2-.7.4-1.4.5-1.2.3-2.4.5-3.5.8-3.2.8-6.5 1.7-9.9 1.7-.6 0-1.2.3-1.7.8l-.1.1c-.6.6-1 1.2-1.6 1.7-1.4 1.2-2.8 1.9-4.5 1.7-.9 0-1.8-.3-2.4-1zm3-1.3c1-.1 1.8-.5 2.4-1.2.2-.2.2-.4.2-.6v-.2l-.1-.1c0-.1 0-.3-.1-.4-.7-.4-1.1-.8-1.6-.8-.6 0-1.2.4-1.6 1.3l-.3.8c-.1.2.1.4.2.7.2.3.5.5.9.5zm4.2-4.7c.6 0 1.2-.4 1.2-.9 0-.4-.1-.7-.3-.9-.2-.2-.4-.4-.7-.4-.4 0-.7.1-1.1.5-.2.2-.3.5-.3.8-.1.8.8.9 1.2.9zM397.4 56.5c-.4-.5-.6-1.2-.5-2.1l.4-1.5c.1-.4.1-.6.2-.9.1-.6 0-.9-.1-1.2-.1-.2-.4-.4-.9-.4l-.4.1c-1.1.2-1.9.4-2.6.6-1.9.6-3.7 1.4-5.5 2l-3.6 1.3c-.6.2-1.2.4-1.9.6-.4.1-.9.2-1.3.4-.4.1-.9.2-1.4.2h-.6c-.6 0-1-.2-1.3-.6-.3-.4-.4-.9-.4-1.4.1-.4.3-.9.4-1.2.5-1.3 1.2-2.4 1.9-3.5l.4-.6 1.4-1.8c.1-.2.3-.4.5-.6.2-.1.5-.3.8-.3.2 0 .4.1.6.2.4.2.5.8.4 1.2-.1.4-.4.9-.7 1.3l-.2.3c-.2.4-.5.7-.7 1l-1.1 1.7c-.2.3-.3.8 0 1.2.3.3.6.3.8.3.1 0 .2 0 .3-.1l3-1.1 2.7-1 4.6-1.6c1.2-.4 2.5-.8 3.8-1 .4-.1.9-.1 1.3-.1h.1c1.2 0 1.9.6 2.2 1.8.1.2.1.4.1.7v.4c0 .4-.1.8-.2 1.2l-.2.9v.1c-.1.3-.1.7.2 1.1.2.2.5.3.7.3.3 0 .5-.1.7-.1 0 0 .3-.1.4-.2l.5-.2 3-1.3 6.3-2.8 1.5-.6 1-.4c.4-.1.8-.2 1.2-.2h.1c.6 0 .9.3 1.1.9.1.4-.1 1-.6 1.2l-.2.1h-.1c-2.1.7-4.1 1.7-6 2.5l-3.8 1.7-2.6 1.1-1.8.9c-.6.2-1.2.4-1.8.5h-.4c-.7-.3-1.3-.5-1.7-1z"/></svg>