<svg xmlns="http://www.w3.org/2000/svg" viewBox="0 0 33.48 34"><defs><style>.cls-1{fill:#fff;}.cls-2{mask:url(#mask);}.cls-3{fill:#313d3e;fill-rule:evenodd;}</style><mask id="mask" x="-8" y="-8" width="114" height="51" maskUnits="userSpaceOnUse"><rect id="path-1" class="cls-1" x="-8" y="-8" width="114" height="51" rx="4"/></mask></defs><title>netlify-icon-black</title><path id="Combined-Shape-Copy" class="cls-3" d="M23.62 12a1.4 1.4 0 0 1 .42.33l3.32-1.33-3.05-3.21-.74 4.21h.05zm-6.8-2.78a1.84 1.84 0 0 1 .29.81l4.89 2.17a1.58 1.58 0 0 1 .5-.26l.79-5-2.98-3.19-3.43 5.4a.11.11 0 0 0-.06.09zm16.64 7.78l-5.23-5.26-3.55 1.53 8.75 3.76.03-.03zm-.87.86l-8.39-3.6h-.06a1.36 1.36 0 0 1-1 .57l-.9 5.59a1.43 1.43 0 0 1 .54 1l5.12 1.18 4.64-4.67a.09.09 0 0 0 0-.05.06.06 0 0 0 .05-.05zm-11.11-4.81l-4.59-2a1.67 1.67 0 0 1-1.41.77h-.27l-3.78 5.93a.06.06 0 0 0 0 .06l10.07-4.36v-.13a.93.93 0 0 1 0-.24l-.02-.03zm5.52 10.38l-4.46-.93a1.64 1.64 0 0 1-.64.49l-1.07 6.66v.06l6.17-6.18v-.1zm-6.22-.43a1.47 1.47 0 0 1-.85-1l-.05-.05-8.26-1.75-.12.19 7.52 11 .46-.46 1.28-8 .02.07zm-9-3.79h.05l8.17 1.79a1.45 1.45 0 0 1 1.16-.75l.88-5.5v-.05a1.77 1.77 0 0 1-.18-.15l-10.08 4.25v.06a1.75 1.75 0 0 1 .01.33zm-3.42 1.36l-.13-.18-3.59 1.5 1.72 1.73 2-3.08v.03zm2.34.56a1.81 1.81 0 0 1-.78.18 1.71 1.71 0 0 1-.63-.11h-.05l-2 3.23v.06l9.3 9.51h.05l1.66-1.68v-.05zm-1.33-3.73h.05a2.22 2.22 0 0 1 .44-.06 2.07 2.07 0 0 1 .49.07l3.82-6a.06.06 0 0 0 0-.06 1.68 1.68 0 0 1-.47-1.17 1.72 1.72 0 0 1 0-.39c-.41-.27-4.7-2.1-4.7-2.11l-3.67 3.67v.06zm.42-10.47s4.33 1.86 4.51 2a1.75 1.75 0 0 1 1.07-.38 2.16 2.16 0 0 1 .56.08l3.61-5.63-2.92-3h-.05l-6.78 6.85v.08zm-1.69 11.51h.05a2 2 0 0 1 .34-.48v-.05c0-.06-3.9-5.72-3.9-5.74l-4.59 4.49 8.1 1.78zm-.37 1l-7-1.47v.06l3.11 3.15 3.87-1.67.02-.08z"/></svg>