<svg id="Layer_1" data-name="Layer 1" xmlns="http://www.w3.org/2000/svg" viewBox="0 0 168 24"><defs><style>.cls-1{fill:none;}.cls-2{fill:#737373;}.cls-3{fill:#676767;}.cls-4{fill:#fff;}</style></defs><title>search-by-algolia-grayscale</title><rect id="canvas_background" data-name="canvas background" class="cls-1" x="-1" y="-1" width="802" height="602"/><g id="svg_1" data-name="svg 1"><path id="svg_2" data-name="svg 2" class="cls-2" d="M79,.94H95.58a3,3,0,0,1,3,3V20.5a3,3,0,0,1-3,3H79a3,3,0,0,1-3-3V3.9a3,3,0,0,1,3-3ZM120.93,18.8c-4.39,0-4.39-3.54-4.39-4.1V1.36l2.68-.42V14.19c0,.32,0,2.36,1.72,2.37Zm-10.85-2.18a9.51,9.51,0,0,0,1.85-.13V13.78a5.93,5.93,0,0,0-1.57-.2,5.46,5.46,0,0,0-.9.07,2.36,2.36,0,0,0-.81.24,1.39,1.39,0,0,0-.58.49.92.92,0,0,0-.22.65,1.29,1.29,0,0,0,.61,1.23,3.14,3.14,0,0,0,1.62.36Zm-.23-9.7a6.6,6.6,0,0,1,2.23.33,3.55,3.55,0,0,1,1.44.92,3.54,3.54,0,0,1,.76,1.48,6.7,6.7,0,0,1,.23,1.85v6.87c-.62.13-1.24.23-1.86.32a20.06,20.06,0,0,1-2.82.18,8.43,8.43,0,0,1-1.89-.2,3.93,3.93,0,0,1-1.47-.63,3.08,3.08,0,0,1-1-1.14,4.22,4.22,0,0,1-.35-1.8,2.77,2.77,0,0,1,.39-1.52,3.16,3.16,0,0,1,1-1.11,4.4,4.4,0,0,1,1.54-.61,8.45,8.45,0,0,1,1.82-.19,8.23,8.23,0,0,1,2,.24v-.44a3.51,3.51,0,0,0-.11-.87,2,2,0,0,0-.39-.73,1.72,1.72,0,0,0-.72-.49,3.2,3.2,0,0,0-1.14-.21,10.67,10.67,0,0,0-1.69.16,7.73,7.73,0,0,0-1.26.31l-.33-2.19a11,11,0,0,1,1.48-.35,12.09,12.09,0,0,1,2.08-.18Zm52.84,9.63a10.38,10.38,0,0,0,1.85-.13V13.7a6.37,6.37,0,0,0-1.57-.2,5.46,5.46,0,0,0-.9.07,2.81,2.81,0,0,0-.81.24,1.39,1.39,0,0,0-.58.49.94.94,0,0,0-.22.66,1.29,1.29,0,0,0,.61,1.23,3.16,3.16,0,0,0,1.62.36Zm-.23-9.69a6.53,6.53,0,0,1,2.23.32,3.59,3.59,0,0,1,1.45.92,3.66,3.66,0,0,1,.76,1.48,6.8,6.8,0,0,1,.23,1.85v6.88c-.41.08-1,.19-1.87.31a19.81,19.81,0,0,1-2.81.18,8.61,8.61,0,0,1-1.9-.19,4,4,0,0,1-1.47-.64,3.06,3.06,0,0,1-1-1.13,4.43,4.43,0,0,1-.34-1.81,2.86,2.86,0,0,1,.38-1.52,3.28,3.28,0,0,1,1.05-1.11,4.54,4.54,0,0,1,1.53-.61,8.76,8.76,0,0,1,2.75-.13,7.1,7.1,0,0,1,1,.18v-.43a3.27,3.27,0,0,0-.11-.88,1.83,1.83,0,0,0-.38-.73,1.85,1.85,0,0,0-.72-.49,3.25,3.25,0,0,0-1.15-.21,9.76,9.76,0,0,0-1.69.17,7.7,7.7,0,0,0-1.26.3l-.32-2.19a12,12,0,0,1,3.55-.52Zm-8-1.28A1.62,1.62,0,1,1,156.06,4,1.62,1.62,0,0,1,154.43,5.58Zm1.35,13.23h-2.69V7.27l2.69-.42v12Zm-4.72,0c-4.38,0-4.38-3.54-4.38-4.11V1.36l2.67-.42V14.19c0,.32,0,2.36,1.72,2.37V18.8Zm-8.7-5.91a4.73,4.73,0,0,0-.74-2.79,2.62,2.62,0,0,0-4.13,0,4.68,4.68,0,0,0-.74,2.79,4.18,4.18,0,0,0,.74,2.63,2.4,2.4,0,0,0,2.07,1,2.43,2.43,0,0,0,2.07-1,4.2,4.2,0,0,0,.73-2.63Zm2.74,0a6.44,6.44,0,0,1-.4,2.33,5.46,5.46,0,0,1-1.12,1.9,4.89,4.89,0,0,1-1.76,1.22,7,7,0,0,1-2.26.45,6.65,6.65,0,0,1-2.25-.45,5.07,5.07,0,0,1-1.75-1.22,5.71,5.71,0,0,1-1.13-1.9A6.23,6.23,0,0,1,134,12.9a7.39,7.39,0,0,1,.39-2.51,5.72,5.72,0,0,1,1.15-1.89,5.07,5.07,0,0,1,1.75-1.22,5.64,5.64,0,0,1,2.23-.42,5.84,5.84,0,0,1,2.24.42,4.89,4.89,0,0,1,1.76,1.22,5.66,5.66,0,0,1,1.13,1.89,6.92,6.92,0,0,1,.43,2.51ZM125,12.9a4.78,4.78,0,0,0,.74,2.88,2.51,2.51,0,0,0,1.91.78,4,4,0,0,0,1.21-.18,3.35,3.35,0,0,0,.91-.42V9.33A10.47,10.47,0,0,0,128,9.1a2.68,2.68,0,0,0-2.23,1A4.67,4.67,0,0,0,125,12.9Zm7.44,5.27a5.12,5.12,0,0,1-1.4,4,6.24,6.24,0,0,1-4.3,1.27,18.31,18.31,0,0,1-3.34-.39l.43-2.12a16.83,16.83,0,0,0,2.95.26,3.26,3.26,0,0,0,2.3-.66,2.54,2.54,0,0,0,.69-1.94v-.44a9.47,9.47,0,0,1-1,.4,5.56,5.56,0,0,1-1.49.19,5.46,5.46,0,0,1-2-.35,4.31,4.31,0,0,1-1.57-1,4.69,4.69,0,0,1-1-1.7,9.79,9.79,0,0,1-.36-2.77,8.56,8.56,0,0,1,.38-2.58,5,5,0,0,1,1.13-1.79,5.08,5.08,0,0,1,1.8-1.16A6.52,6.52,0,0,1,128,6.91a14.64,14.64,0,0,1,2.45.24,19.83,19.83,0,0,1,2,.41V18.17Z"/><path id="svg_3" data-name="svg 3" class="cls-3" d="M7,6.68V8.3a4.51,4.51,0,0,0-2.42-.67A2.18,2.18,0,0,0,3.17,8a1.26,1.26,0,0,0-.51,1,1.22,1.22,0,0,0,.5,1,6.73,6.73,0,0,0,1.52.83c.44.2.79.36,1,.5a6.85,6.85,0,0,1,.86.58,2.22,2.22,0,0,1,.72.9,2.92,2.92,0,0,1,.23,1.18,2.73,2.73,0,0,1-1,2.24,4,4,0,0,1-2.61.81A5.75,5.75,0,0,1,1,16.43V14.72a4.72,4.72,0,0,0,2.92.94,2.19,2.19,0,0,0,1.39-.41,1.35,1.35,0,0,0,.51-1.12,1.2,1.2,0,0,0-.3-.79,2.18,2.18,0,0,0-.66-.54c-.23-.13-.58-.29-1-.51L3.22,12c-.19-.09-.37-.19-.55-.29a3.36,3.36,0,0,1-.57-.35,5.72,5.72,0,0,1-.46-.4,1.74,1.74,0,0,1-.39-.51A4.92,4.92,0,0,1,1,9.88a2.34,2.34,0,0,1-.1-.75A2.66,2.66,0,0,1,1.92,7,4,4,0,0,1,4.5,6.17,5.47,5.47,0,0,1,7,6.68Zm7.47,5.69v-.28A2.32,2.32,0,0,0,14,10.64a1.65,1.65,0,0,0-1.33-.53,1.84,1.84,0,0,0-1.37.58,2.9,2.9,0,0,0-.72,1.68Zm1,2.79v1.41a4.79,4.79,0,0,1-2.37.51,4.06,4.06,0,0,1-3-1.13A4.08,4.08,0,0,1,9,13a4.35,4.35,0,0,1,1-3.06,3.38,3.38,0,0,1,2.6-1.11,3.25,3.25,0,0,1,2.46,1A3.93,3.93,0,0,1,16,12.56a6.41,6.41,0,0,1-.1,1H10.55a2.34,2.34,0,0,0,.89,1.61,3,3,0,0,0,1.85.56A3.65,3.65,0,0,0,15.45,15.16Zm6.6-1.76H20.84a2.13,2.13,0,0,0-1.35.35,1.08,1.08,0,0,0-.45.89,1.12,1.12,0,0,0,.35.88,1.47,1.47,0,0,0,1,.32,1.66,1.66,0,0,0,1.2-.43,1.48,1.48,0,0,0,.44-1.11v-.91ZM18,10.84V9.33a4.89,4.89,0,0,1,2.49-.55q3.18,0,3.18,3.08V17H22.1V16a2.36,2.36,0,0,1-2.19,1,2.56,2.56,0,0,1-1.84-.66,2.22,2.22,0,0,1-.69-1.68,2.12,2.12,0,0,1,.87-1.81,4.11,4.11,0,0,1,2.46-.65h1.34V11.8a1.74,1.74,0,0,0-.4-1.25,1.76,1.76,0,0,0-1.32-.43,4.17,4.17,0,0,0-2.35.72Zm9.34-1.93v1.42a2.13,2.13,0,0,1,2.12-1.5,3,3,0,0,1,.49.05v1.53a1.76,1.76,0,0,0-.75-.14,1.6,1.6,0,0,0-1.34.72,2.77,2.77,0,0,0-.52,1.7V17H25.75V8.91Zm5,4.09a3,3,0,0,0,.75,2,2.56,2.56,0,0,0,2,.79,3.27,3.27,0,0,0,1.78-.52v1.4a3.74,3.74,0,0,1-2,.48,4,4,0,0,1-3-1.2,4.15,4.15,0,0,1-1.14-3,4.25,4.25,0,0,1,1.14-3,4,4,0,0,1,3.09-1.23,4.28,4.28,0,0,1,1.93.44v1.44a3.34,3.34,0,0,0-1.77-.5,2.67,2.67,0,0,0-2,.8A2.88,2.88,0,0,0,32.33,13Zm7.91-7.28V10.3a2.83,2.83,0,0,1,4.4-.77,2.8,2.8,0,0,1,.72,2.05V17H43.8V11.89a1.81,1.81,0,0,0-.42-1.28,1.48,1.48,0,0,0-1.11-.46,2,2,0,0,0-1.41.61,2.5,2.5,0,0,0-.62,1.85V17H38.68V5.72Zm15,10a1.86,1.86,0,0,0,1.5-.76,3,3,0,0,0,.6-2,3.3,3.3,0,0,0-.6-2.12,1.93,1.93,0,0,0-1.55-.74,2.07,2.07,0,0,0-1.49.67A2.83,2.83,0,0,0,53,12.9,3.13,3.13,0,0,0,53.64,15,2,2,0,0,0,55.21,15.74ZM53,5.72v4.42A2.76,2.76,0,0,1,55.44,8.8,3.12,3.12,0,0,1,58,10a4.54,4.54,0,0,1,1,3.05A4.7,4.7,0,0,1,58,15.91a3,3,0,0,1-2.54,1.2A2.73,2.73,0,0,1,53,15.77V17H51.42V5.72Zm9.91,11.1L59.69,8.91h1.74l1,2.63L63.69,15c.1-.32.48-1.46,1.15-3.42l.91-2.63h1.66l-2.92,7.87q-1.15,3.11-3.56,3.11a3,3,0,0,1-.73-.08V18.47a2.35,2.35,0,0,0,.54.06A2.22,2.22,0,0,0,62.91,16.82Z"/><path id="svg_4" data-name="svg 4" class="cls-4" d="M89.63,6V5.2a1,1,0,0,0-1-1H86.37a1,1,0,0,0-1,1V6a.13.13,0,0,0,.17.13,7,7,0,0,1,2-.28,7.29,7.29,0,0,1,1.92.26A.13.13,0,0,0,89.63,6M83.38,7,83,6.59a1,1,0,0,0-1.38,0h0l-.46.46a1,1,0,0,0,0,1.38h0l.38.39a.15.15,0,0,0,.21,0,7.57,7.57,0,0,1,.74-.87,6.85,6.85,0,0,1,.88-.75.13.13,0,0,0,0-.2m4.16,2.45v3.34a.14.14,0,0,0,.2.12l3-1.54a.13.13,0,0,0,.05-.18A3.69,3.69,0,0,0,87.68,9.3a.13.13,0,0,0-.13.13m0,8.05A4.48,4.48,0,1,1,92,13a4.49,4.49,0,0,1-4.48,4.48h0m0-10.85A6.37,6.37,0,1,0,93.92,13h0a6.36,6.36,0,0,0-6.36-6.36h0"/></g></svg>