<?xml version="1.0" encoding="iso-8859-1"?>
<!-- Generator: Adobe Illustrator 19.0.0, SVG Export Plug-In . SVG Version: 6.00 Build 0)  -->
<svg version="1.1" id="Layer_1" xmlns="http://www.w3.org/2000/svg" xmlns:xlink="http://www.w3.org/1999/xlink" x="0px" y="0px"
	 viewBox="0 0 485 485" style="enable-background:new 0 0 485 485;" xml:space="preserve">
<g>
	<path d="M334.757,179.537C368.062,152.38,402.5,124.299,402.5,72.5V0h-320v72.5c0,51.799,34.438,79.88,67.743,107.037
		c16.084,13.115,32.717,26.677,45.442,42.942c1.12,1.459,3.576,8.527,3.576,20.021s-2.456,18.562-3.575,20.02
		c-12.727,16.267-29.359,29.828-45.443,42.943C116.938,332.62,82.5,360.701,82.5,412.5V485h320v-72.5
		c0-51.799-34.438-79.88-67.743-107.037c-16.084-13.115-32.717-26.677-45.442-42.942c-1.12-1.459-3.576-8.527-3.576-20.021
		s2.456-18.562,3.575-20.02C302.04,206.213,318.673,192.652,334.757,179.537z M265.687,281.005
		c14.794,18.91,32.749,33.55,50.112,47.708c30.425,24.809,56.701,46.234,56.701,83.786V455h-260v-42.5
		c0-37.552,26.276-58.978,56.701-83.786c17.363-14.158,35.318-28.798,50.112-47.708c13.233-16.914,13.233-60.097,0-77.011
		c-14.794-18.91-32.749-33.55-50.112-47.708C138.776,131.478,112.5,110.052,112.5,72.5V30h260v42.5
		c0,37.552-26.276,58.978-56.701,83.786c-17.363,14.158-35.318,28.798-50.112,47.708
		C252.453,220.908,252.453,264.092,265.687,281.005z" fill="#999"/>
</g>
</svg>
