<svg height="436pt" viewBox="0 0 436.00147 436" width="436pt" xmlns="http://www.w3.org/2000/svg"><path d="m218 0c-88.171875 0-167.664062 53.117188-201.40625 134.578125s-15.089844 175.226563 47.257812 237.574219c85.132813 85.132812 223.164063 85.132812 308.300782 0 85.132812-85.136719 85.132812-223.167969 0-308.300782-40.796875-41.015624-96.304688-64.007812-154.152344-63.851562zm0 416c-109.179688 0-198-88.820312-198-198 0-109.175781 88.820312-198 198-198 109.175781 0 198 88.824219 198 198 0 109.179688-88.824219 198-198 198zm0 0" fill="#ccc"/><g fill="#bbb"><path d="m226.28125 213.859375v-87.378906c0-5.523438-4.476562-10-10-10s-10 4.476562-10 10v91.519531c0 2.652344 1.054688 5.195312 2.929688 7.074219l44.6875 44.691406c3.90625 3.90625 10.238281 3.90625 14.144531 0 3.902343-3.90625 3.902343-10.238281 0-14.140625zm0 0"/></g></svg>