<svg xmlns="http://www.w3.org/2000/svg" xmlns:xlink="http://www.w3.org/1999/xlink" viewBox="0 0 1046.3 509.8" enable-background="new 0 0 1046.3 509.8"><style type="text/css">.st0{enable-background:new ;} .st1{clip-path:url(#SVGID_2_);} .st2{fill:#B0B0B0;} .st3{fill:#3A71B7;} .st4{fill:#5184C8;} .st5{fill:#3465A4;} .st6{fill:#204A87;} .st7{fill:none;stroke:#204A87;stroke-width:6;} .st8{fill:none;stroke:#204A87;stroke-width:7;} .st9{fill:none;stroke:#204A87;stroke-width:5;} .st10{fill:none;stroke:#204A87;stroke-width:6;stroke-linecap:round;} .st11{fill:none;stroke:#204A87;stroke-width:5;stroke-linecap:round;} .st12{fill:#FFC072;} .st13{fill:#FF9C72;} .st14{fill:#FF9C5C;} .st15{fill:#F63647;} .st16{fill:none;stroke:#F63647;stroke-width:6;stroke-linecap:round;} .st17{clip-path:url(#SVGID_3_);}</style><g class="st0"><defs><path id="SVGID_1_" d="M402.5 297l130.4-75.8 118.2 68.2-130.4 75.8z" class="st0"/></defs><clipPath id="SVGID_2_"><use xlink:href="#SVGID_1_" overflow="visible"/></clipPath><g class="st1"><path d="M456.1 303.5l-2-1.1-7 4.1 1.9 1.1c2 1.1 5.1 1.1 7.1 0s2-3 0-4.1m21.5 12.2l-7.2-4.1c-2-1.1-5.1-1.1-7.1 0-1.9 1.1-1.9 3 0 4.1l7.1 4.1c2 1.1 5.1 1.1 7.1 0s2-3 .1-4.1m21.4 12.2l-7.2-4.1c-2-1.1-5.1-1.1-7.1 0-1.9 1.1-1.9 3 0 4.1l7.1 4.1c2 1.1 5.1 1.1 7.1 0 2.1-1.1 2-3 .1-4.1m21.4 12.2l-7.2-4.1c-2-1.1-5.1-1.1-7.1 0-1.9 1.1-1.9 3 0 4.1l7.2 4.1c2 1.1 5.1 1.1 7.1 0s2-3 0-4.1m21.4 8.7c-1.8-1-4.7-1.1-6.6-.2l-.5-.3c-2-1.1-5.1-1.1-7.1 0-1.9 1.1-1.9 3 .1 4.1l7.6 4.3 6.5-3.9c2-1.1 1.9-2.9 0-4m21-12.4c-2-1.1-5.2-1.1-7.1 0l-7 4.1c-1.9 1.1-1.9 3 0 4.1 2 1.1 5.1 1.1 7.1 0l7-4.1c2-1.2 1.9-3 0-4.1m21-12.4c-2-1.1-5.2-1.1-7.1 0l-7 4.1c-1.9 1.1-1.9 3 0 4.1 2 1.1 5.1 1.1 7.1 0l7-4.1c2-1.1 1.9-3 0-4.1m21-12.4c-2-1.1-5.2-1.1-7.1 0l-7 4.1c-1.9 1.1-1.9 2.9 0 4.1 2 1.1 5.1 1.1 7.1 0l7-4.1c2-1.1 1.9-2.9 0-4.1m21-12.3c-2-1.1-5.2-1.1-7.1 0l-7 4.1c-1.9 1.1-1.9 3 .1 4.1 2 1.1 5.1 1.1 7.1 0l7-4.1c1.9-1.2 1.8-3-.1-4.1m21-12.4c-2-1.1-5.2-1.1-7.1 0l-7 4.1c-1.9 1.1-1.9 3 0 4.1 2 1.1 5.1 1.1 7.1 0l7-4.1c1.9-1.2 1.9-3 0-4.1M468.1 294.2l-48.2-7.3 13.3 27.8 14-8.2 7-4.1 13.9-8.2" class="st2"/></g></g><path d="M337.2 313L293 287.1v-68.9l44.2 25.4z" class="st3"/><path d="M293 217.2l46.2 26.4 107.8-63-45.8-26.2z" class="st4"/><path d="M339.2 314v-69.4l107.8-62v67.6z" class="st5"/><path d="M401.2 158.3l41.9 24.7v67.7L338.7 311 295 285.6v-66.9l106.2-60.4m0-6.3c-.6 0-1.2.1-1.7.4l-108.7 61.8c-1 .5-1.7 1.9-1.7 3v69.9c0 1.1.8 2.5 1.7 3l46.1 26.9c.5.3 1.1.4 1.7.4.6 0 1.2-.1 1.7-.4l107-61.8c1-.6 1.7-1.9 1.7-3v-70.6c0-1.1-.8-2.5-1.7-3l-44.4-26.2c-.4-.3-1.1-.4-1.7-.4z" class="st6"/><path d="M292 216.9l46.6 26.5 106.6-61.6" class="st7"/><path d="M338.6 314v-70.6" class="st8"/><path d="M314.2 229.5v70.1" class="st9"/><path d="M304.7 263.1l19 10.8" class="st10"/><path d="M356.9 249.6V291M371.6 240.2v41.3M386.4 233.7V275M401.1 223.5v41.3M415.9 214.8v41.3M430.7 205.3v41.3" class="st11"/><path d="M631 188.4l60.2 34.1v71.2L631 258.1z" class="st12"/><path d="M631 188.4l60.2-35.9 60.3 35.9-60.3 34.1z" class="st13"/><path d="M691.2 222.5l60.3-34.1v69.7l-60.3 35.6z" class="st14"/><path d="M692.5 154.8m-1.3.8l58.6 33.8V257l-58.6 33.8-58.6-33.8v-67.6l58.6-33.8m0-6.4c-.6 0-1.3.1-1.7.4l-61.1 35.3c-1 .5-1.7 1.9-1.7 3v70.6c0 1.1.8 2.5 1.7 3l61.1 35.3c.5.3 1.1.4 1.7.4s1.3-.1 1.7-.4l61.1-35.3c1-.5 1.7-1.9 1.7-3v-70.6c0-1.1-.8-2.5-1.7-3l-61-35.2c-.5-.3-1.1-.5-1.8-.5z" class="st15"/><path d="M631 188.4l60.2 34.1 60.3-34.1M691.2 293.7v-71.2" class="st16"/><g class="st0"><defs><path id="SVGID_31_" d="M635.1 254.6l.2-57 49.7 28.6-.2 57.1z" class="st0"/></defs><clipPath id="SVGID_3_"><use xlink:href="#SVGID_31_" overflow="visible"/></clipPath><path d="M660.1 211.9c-.8-.5-1.6-.6-2.3-.2l-4.5 2.6 5.7 9.9c.4.1.8.2 1.2.5 1 .6 1.9 1.5 2.7 2.8 1.1 1.8 1.4 3.8.9 5l5.5 9.5c.4.1.8.2 1.2.5 1 .6 1.9 1.5 2.7 2.8 1.5 2.6 1.5 5.3 0 6.2-.7.4-1.7.3-2.7-.3-1-.6-1.9-1.6-2.7-2.8-1.1-1.9-1.4-4-.8-5.2l-5.1-8.9v15.5c.4.4.7.9 1 1.4 1.5 2.6 1.5 5.3 0 6.2-.7.4-1.7.3-2.7-.3-1-.6-1.9-1.5-2.7-2.8-1.5-2.6-1.5-5.3 0-6.2.4-.2.8-.3 1.3-.2v-15.7c-.5-.5-.9-1-1.2-1.7-1.1-1.9-1.4-4-.8-5.3l-5.6-9.7-14.9 8.5c-1.3.7-1.3 3 0 5.2l21.6 37.4c.6 1.1 1.4 1.9 2.3 2.4.8.5 1.6.6 2.3.2l21.7-12.3c1.3-.7 1.3-3 0-5.2l-21.6-37.4c-.9-1.1-1.7-2-2.5-2.4" class="st15"/></g></svg>