<svg xmlns="http://www.w3.org/2000/svg" xmlns:xlink="http://www.w3.org/1999/xlink" viewBox="0 0 1046.3 420.5" enable-background="new 0 0 1046.3 420.5"><style type="text/css">.st0{enable-background:new ;} .st1{fill:#00D37A;} .st2{clip-path:url(#SVGID_2_);} .st3{fill:#C2C2C2;} .st4{clip-path:url(#SVGID_4_);} .st5{fill:#3A71B7;} .st6{fill:#5184C8;} .st7{fill:#3465A4;} .st8{fill:#204A87;} .st9{fill:none;stroke:#204A87;stroke-width:6;} .st10{fill:none;stroke:#204A87;stroke-width:7;} .st11{fill:none;stroke:#204A87;stroke-width:5;} .st12{fill:none;stroke:#204A87;stroke-width:6;stroke-linecap:round;} .st13{fill:none;stroke:#204A87;stroke-width:5;stroke-linecap:round;} .st14{fill:#FFC072;} .st15{fill:#FF9C72;} .st16{fill:#FF9C5C;} .st17{fill:#F63647;} .st18{fill:none;stroke:#F63647;stroke-width:6;stroke-linecap:round;} .st19{clip-path:url(#SVGID_6_);} .st20{fill:#00C27A;} .st21{fill:#00BA83;} .st22{fill:#009F73;} .st23{fill:none;stroke:#009F73;stroke-width:6;} .st24{fill:none;stroke:#009F73;stroke-width:7;} .st25{fill:none;stroke:#009F73;stroke-width:5;} .st26{fill:none;stroke:#009F73;stroke-width:6;stroke-linecap:round;} .st27{fill:none;stroke:#009F73;stroke-width:5;stroke-linecap:round;} .st28{fill:#FFAE87;} .st29{fill:#E59587;} .st30{fill:none;stroke:#808080;stroke-width:1.5;stroke-miterlimit:10;} .st31{fill:#808080;} .st32{fill:#333333;}</style><g class="st0"><path d="M569.6 149.5c-2-1.1-5.2-1.1-7.1 0l-6.9 4.1 7.1 4.1 6.9-4.1c1.9-1.1 1.9-3 0-4.1m21-12.4c-2-1.1-5.2-1.1-7.1 0l-7 4.1c-1.9 1.1-1.9 3 0 4.1 2 1.1 5.1 1.1 7.1 0l7-4.1c1.9-1.1 1.9-2.9 0-4.1m21-12.3s-.1 0 0 0c-2-1.1-5.2-1.1-7.1 0l-7 4.1c-1.9 1.1-1.9 3 .1 4.1 2 1.1 5.1 1.1 7.1 0l7-4.1c1.8-1.2 1.8-3-.1-4.1m21-12.4c-.1 0-.1 0 0 0-2-1.1-5.2-1.1-7.1 0l-7 4.1c-1.9 1.1-1.9 3 .1 4.1 2 1.1 5.1 1.1 7.1 0l7-4.1c1.8-1.2 1.8-3-.1-4.1m21.1-2.9l-7.2-4.1c-2-1.1-5.1-1.1-7.1 0-1.9 1.1-1.9 3 0 4.1l7.1 4.1c2 1.1 5.1 1.1 7.1 0 2.1-1.2 2.1-3 .1-4.1m21.5 12.2c-.1 0-.1 0 0 0l-7.2-4.1c-2-1.1-5.1-1.1-7.1 0-1.9 1.1-1.9 3 0 4.1l7.1 4.1c2 1.1 5.1 1.1 7.1 0 2-1.2 2-3 .1-4.1m21.4 12.2l-7.2-4.1c-2-1.1-5.1-1.1-7.1 0-1.9 1.1-1.9 3 0 4.1l7.2 4.1c2 1.1 5.1 1.1 7.1 0 1.9-1.2 1.9-3 0-4.1m21.4 12.2l-7.2-4.1c-2-1.1-5.1-1.1-7.1 0-1.9 1.1-1.9 3 .1 4.1l7.1 4.1c2 1.1 5.1 1.1 7.1 0 2-1.2 2-3 0-4.1m21.4 12.2l-7.2-4.1c-2-1.1-5.1-1.1-7.1 0-1.9 1.1-1.9 3 0 4.1l7.1 4.1c2 1.1 5.1 1.1 7.1 0 2.1-1.2 2.1-3 .1-4.1m21.5 12.2s-.1 0 0 0l-7.2-4.1c-2-1.1-5.1-1.1-7.1 0-1.9 1.1-1.9 3 0 4.1l7.1 4.1c2 1.1 5.1 1.1 7.1 0 2-1.2 2-3 .1-4.1M576.9 165.8l-14.2-8.1-7.2-4.1-14.2-8.1-12.4 27.9 48-7.6" class="st1"/></g><g class="st0"><path d="M238.5 257.9l-2-1.1-7 4.1 1.9 1.1c2 1.1 5.1 1.1 7.1 0s2-3 0-4.1m21.5 12.2l-7.2-4.1c-2-1.1-5.1-1.1-7.1 0-1.9 1.1-1.9 3 0 4.1l7.1 4.1c2 1.1 5.1 1.1 7.1 0s2-3 .1-4.1m21.4 12.2l-7.2-4.1c-2-1.1-5.1-1.1-7.1 0-1.9 1.1-1.9 3 0 4.1l7.1 4.1c2 1.1 5.1 1.1 7.1 0 2.1-1.1 2-3 .1-4.1m21.4 12.2l-7.2-4.1c-2-1.1-5.1-1.1-7.1 0-1.9 1.1-1.9 3 0 4.1l7.2 4.1c2 1.1 5.1 1.1 7.1 0s2-3 0-4.1m21.4 8.7c-1.8-1-4.7-1.1-6.6-.2l-.5-.3c-2-1.1-5.1-1.1-7.1 0-1.9 1.1-1.9 3 .1 4.1l7.6 4.3 6.5-3.9c2-1.1 1.9-2.9 0-4m21-12.4c-2-1.1-5.2-1.1-7.1 0l-7 4.1c-1.9 1.1-1.9 3 0 4.1 2 1.1 5.1 1.1 7.1 0l7-4.1c2-1.2 1.9-3 0-4.1m21-12.4c-2-1.1-5.2-1.1-7.1 0l-7 4.1c-1.9 1.1-1.9 3 0 4.1 2 1.1 5.1 1.1 7.1 0l7-4.1c2-1.1 1.9-3 0-4.1m21-12.4c-2-1.1-5.2-1.1-7.1 0l-7 4.1c-1.9 1.1-1.9 2.9 0 4.1 2 1.1 5.1 1.1 7.1 0l7-4.1c2-1.1 1.9-2.9 0-4.1m21-12.3c-2-1.1-5.2-1.1-7.1 0l-7 4.1c-1.9 1.1-1.9 3 .1 4.1 2 1.1 5.1 1.1 7.1 0l7-4.1c1.9-1.2 1.8-3-.1-4.1m21-12.4c-2-1.1-5.2-1.1-7.1 0l-7 4.1c-1.9 1.1-1.9 3 0 4.1 2 1.1 5.1 1.1 7.1 0l7-4.1c1.9-1.2 1.9-3 0-4.1M250.5 248.6l-48.2-7.3 13.3 27.8 14-8.2 7-4.1 13.9-8.2" class="st1"/></g><g class="st0"><defs><path id="SVGID_1_" d="M59.4 226L376.8 41.5l293.3 169.4-317.4 184.4z" class="st0"/></defs><clipPath id="SVGID_2_"><use xlink:href="#SVGID_1_" overflow="visible"/></clipPath><g class="st2"><path d="M112.7 244.5s-3.6-2.1-9.1-5.3l-2.1 1.2c5.5 3.2 9.1 5.3 9.1 5.3l2.1-1.2m117.7 68l-9.1-5.3-2.1 1.2 9.1 5.3 2.1-1.2m18.3 10.5l-9.1-5.3-2.1 1.2 9.1 5.3 2.1-1.2m18.2 10.5l-9.1-5.3-2.1 1.2 9.1 5.3 2.1-1.2m18.3 10.6l-9.1-5.3-2.1 1.2 9.1 5.3 2.1-1.2m18.2 10.5l-9.1-5.3-2.1 1.2 9.1 5.3 2.1-1.2m18.2 10.5l-9.1-5.3-2.1 1.2 9.1 5.3 2.1-1.2m18.3 10.4c-1-.5-2.1-1-3-1.6l-6.1-3.5-2.1 1.2 6.1 3.5c1.1.6 2.2 1.2 3.3 1.7l1.8-1.3M87 228.4l-2.8.7c1.3 1.7 3.1 3.3 5.5 4.6.9.5 1.7 1 2.6 1.5l2.1-1.2c-.8-.5-1.7-1-2.6-1.5-2-1.2-3.6-2.6-4.8-4.1m275.9 151.3c-4.1.1-8.2-.2-12.2-.9l-.9 1.7c4.3.8 8.8 1.1 13.2 1l-.1-1.8M87.5 214.5l-2.8-.7c-1.8 2.5-2.7 5-2.9 7.5l3 .1c.2-2.2 1.1-4.6 2.7-6.9M385 374.1c-3 1.7-6.5 3-10.1 4l1.2 1.6c4-1 7.8-2.5 11-4.3l-2.1-1.3M102.8 203.2l-2.1-1.2-6.6 3.8c-.8.5-1.7 1-2.4 1.5l2.3 1.1c.7-.5 1.5-1 2.3-1.4l6.5-3.8m302.4 161.6l-2.1-1.2-9.1 5.3 2.1 1.2 9.1-5.3M121 192.7l-2.1-1.2-9.1 5.3 2.1 1.2 9.1-5.3m302.4 161.6l-2.1-1.2-9.1 5.3 2.1 1.2 9.1-5.3M139.1 182.1l-2.1-1.2-9.1 5.3 2.1 1.2 9.1-5.3m302.4 161.6l-2.1-1.2-9.1 5.3 2.1 1.2 9.1-5.3M157.2 171.6l-2.1-1.2-9.1 5.3 2.1 1.2 9.1-5.3m302.4 161.6l-2.1-1.2-9.1 5.3 2.1 1.2 9.1-5.3M175.3 161.1l-2.1-1.2-9.1 5.3 2.1 1.2 9.1-5.3m302.4 161.6l-2.1-1.2-9.1 5.3 2.1 1.2 9.1-5.3M193.5 150.5l-2.1-1.2-9.1 5.3 2.1 1.2 9.1-5.3m302.4 161.6l-2.1-1.2-9.1 5.3 2.1 1.2 9.1-5.3M211.6 140l-2.1-1.2-9.1 5.3 2.1 1.2 9.1-5.3M514 301.6l-2.1-1.2-9.1 5.3 2.1 1.2 9.1-5.3M229.7 129.5l-2.1-1.2-9.1 5.3 2.1 1.2 9.1-5.3m302.4 161.6l-2.1-1.2-9.1 5.3 2.1 1.2 9.1-5.3M247.8 118.9l-2.1-1.2-9.1 5.3 2.1 1.2 9.1-5.3m302.4 161.6l-2.1-1.2-9.1 5.3 2.1 1.2 9.1-5.3M266 108.4l-2.1-1.2-9.1 5.3 2.1 1.2 9.1-5.3M568.4 270l-2.1-1.2-9.1 5.3 2.1 1.2 9.1-5.3M284.1 97.9l-2.1-1.2-9.1 5.3 2.1 1.2 9.1-5.3m302.4 161.6l-2.1-1.2-9.1 5.3 2.1 1.2 9.1-5.3M302.2 87.3l-2.1-1.2-9.1 5.3 2.1 1.2 9.1-5.3m302.4 161.6l-2.1-1.2-9.1 5.3 2.1 1.2 9.1-5.3M320.3 76.8l-2.1-1.2-9.1 5.3 2.1 1.2 9.1-5.3m302.4 161.6l-2.1-1.2-9.1 5.3 2.1 1.2 9.1-5.3M338.5 66.3l-2.1-1.2-9.1 5.3 2.1 1.2 9.1-5.3m302.4 161.6l-2.1-1.2-9.1 5.3 2.1 1.2 9.1-5.3m-286-173.3c-1.5.6-3 1.4-4.3 2.2l-5.2 3 2.1 1.2 5.2-3c1.3-.7 2.6-1.4 4-2l-1.8-1.4m299.2 160.2l-2.9-.3c-.7 2.3-2.2 4.6-4.3 6.6l2.6.9c2.2-2.2 3.8-4.6 4.6-7.2M380.2 50.5c-4.4-.2-8.9 0-13.3.7l.8 1.7c4-.6 8.1-.8 12.2-.6l.3-1.8m269.3 149.4l-2.6.9c2.1 2.1 3.5 4.3 4.3 6.7l3-.3c-.9-2.6-2.4-5.1-4.7-7.3M403.8 57.1l-.6-.3c-3-1.8-6.5-3.2-10.2-4.2l-1.3 1.6c3.4.9 6.6 2.2 9.4 3.8l.6.3 2.1-1.2M422 67.6l-9.1-5.3-2.1 1.2 9.1 5.3 2.1-1.2m18.3 10.6l-9.1-5.3-2.1 1.2 9.1 5.3 2.1-1.2m18.2 10.5l-9.1-5.3-2.1 1.2 9.1 5.3 2.1-1.2m18.3 10.5l-9.1-5.3-2.1 1.2 9.1 5.3 2.1-1.2m18.2 10.6l-9.1-5.3-2.1 1.2 9.1 5.3 2.1-1.2m18.3 10.5l-9.1-5.3-2.1 1.2 9.1 5.3 2.1-1.2m18.2 10.5l-9.1-5.3-2.1 1.2 9.1 5.3 2.1-1.2m18.2 10.6l-9.1-5.3-2.1 1.2 9.1 5.3 2.1-1.2m18.3 10.5l-9.1-5.3-2.1 1.2 9.1 5.3 2.1-1.2m18.2 10.5l-9.1-5.3-2.1 1.2 9.1 5.3 2.1-1.2m18.3 10.6l-9.1-5.3-2.1 1.2 9.1 5.3 2.1-1.2m18.2 10.5l-9.1-5.3-2.1 1.2 9.1 5.3 2.1-1.2M641 194l-9.1-5.3-2.1 1.2 9.1 5.3 2.1-1.2M151.5 254.8l-4.3-2.5-7.9 4.6c-1.8 1.1-3.4 2.1-4.7 3-1.3 1-2.3 1.8-3.1 2.4l10.9-12.7-6.3-3.7-20.5 11.9 4.3 2.5 7.7-4.5c1.2-.7 2.3-1.4 3.3-2.1 1-.7 1.9-1.3 2.7-2 .8-.6 1.4-1.1 1.9-1.5l-10.8 12.9 6.2 3.6 20.6-11.9M148.1 273c-1.2-.7-1.5-1.5-.9-2.5s2.2-2.2 4.7-3.7 4.6-2.4 6.3-2.7c1.7-.4 3.1-.2 4.3.5 1.2.7 1.5 1.5.9 2.5s-2.2 2.2-4.7 3.7-4.6 2.4-6.3 2.7c-1.6.4-3 .3-4.3-.5m18-10.4c-1.9-1.1-3.9-1.7-6.1-2s-4.4-.1-6.7.5-4.5 1.5-6.6 2.7c-2.2 1.3-3.8 2.6-4.8 3.9-1 1.3-1.2 2.6-.8 3.8.4 1.2 1.6 2.4 3.4 3.5 1.9 1.1 3.9 1.7 6.1 2 2.2.2 4.4 0 6.7-.5 2.3-.6 4.5-1.5 6.7-2.7 2.2-1.3 3.8-2.6 4.8-3.9 1-1.3 1.2-2.6.8-3.8-.5-1.3-1.6-2.4-3.5-3.5M167.7 283.8l13.5-7.8 1.1.6c.9.5 1.5 1.1 1.9 1.7.4.6.3 1.3-.2 2.1s-1.7 1.7-3.6 2.8c-1.8 1-3.4 1.7-4.8 2.1s-2.7.4-3.8.2c-1.1-.2-2.1-.5-3.1-1.1l-1-.6m17.3-9.7l-5.4-3.1-20.5 11.9 5.8 3.3c1.3.8 2.8 1.4 4.3 2 1.5.5 3.2.9 4.9 1 1.7.1 3.6 0 5.5-.5s3.9-1.3 6-2.5 3.5-2.4 4.3-3.5c.7-1.1.9-2.2.7-3.2-.3-1-1-2-2-2.9-1-.8-2.2-1.7-3.6-2.5M216.6 292.4l-14-8.1-20.5 11.9 14 8.1 3.5-2-9-5.2 5.3-3.1 7.4 4.3 3.4-1.9-7.4-4.3 4.9-2.9 8.5 4.9 3.9-1.7" class="st3"/></g></g><g class="st0"><defs><path id="SVGID_3_" d="M302.7 190.9l150.9-87.7 145.6 84.1L448.4 275z" class="st0"/></defs><clipPath id="SVGID_4_"><use xlink:href="#SVGID_3_" overflow="visible"/></clipPath><g class="st4"><path d="M327.1 196.1s-1.9-1.1-4.6-2.7l-1.5.9c2.7 1.6 4.6 2.7 4.6 2.7l1.5-.9m52.7 30.5l-4.6-2.7-1.5.9 4.6 2.7 1.5-.9m9.3 5.3l-4.6-2.7-1.5.9 4.6 2.7 1.5-.9m9.2 5.4l-4.6-2.7-1.5.9 4.6 2.7 1.5-.9m9.3 5.3l-4.6-2.7-1.5.9 4.6 2.7 1.5-.9m9.2 5.3l-4.6-2.7-1.5.9 4.6 2.7 1.5-.9m9.3 5.4l-4.6-2.7-1.5.9 4.6 2.7 1.5-.9m9.2 5.3l-4.6-2.7-1.5.9 4.6 2.7 1.5-.9m9.7 4.8c-1.8-.5-3.5-1.2-5-2.1l-1.5.9c1.7.9 3.6 1.7 5.5 2.3l1-1.1m-127.3-75.9l-2.1-.2c-.5 1.5-.3 2.9.8 4.1l1.9-.6c-.8-.8-1.1-1.9-.6-3.3M457 264.6c-2 .1-4.1.1-6.2-.1l-.4 1.2c2.2.2 4.5.3 6.8.1l-.2-1.2m-133.9-83.5l-1.7-.8c-1.4 1.1-2.6 2.2-3.6 3.3l1.9.6c.9-1 2-2.1 3.4-3.1m145 80.6c-1.6.8-3.3 1.5-5.2 1.9l.9 1.1c2-.5 4-1.2 5.7-2.1l-1.4-.9m-136.2-86l-1.5-.9-4.6 2.7 1.5.9 4.6-2.7m146.9 81.6l-1.5-.9-4.6 2.7 1.5.9 4.6-2.7m-137.7-87l-1.5-.9-4.6 2.7 1.5.9 4.6-2.7M488 251.9l-1.5-.9-4.6 2.7 1.5.9 4.6-2.7M350.3 165l-1.5-.9-4.6 2.7 1.5.9 4.6-2.7m146.9 81.6l-1.5-.9-4.6 2.7 1.5.9 4.6-2.7m-137.7-86.9l-1.5-.9-4.6 2.7 1.5.9 4.6-2.7m146.8 81.6l-1.5-.9-4.6 2.7 1.5.9 4.6-2.7m-137.6-87l-1.5-.9-4.6 2.7 1.5.9 4.6-2.7m146.8 81.6l-1.5-.9-4.6 2.7 1.5.9 4.6-2.7M377.8 149l-1.5-.9-4.6 2.7 1.5.9 4.6-2.7m146.9 81.6l-1.5-.9-4.6 2.7 1.5.9 4.6-2.7m-137.7-87l-1.5-.9-4.6 2.7 1.5.9 4.6-2.7m146.9 81.6l-1.5-.9-4.6 2.7 1.5.9 4.6-2.7m-137.7-86.9l-1.5-.9-4.6 2.7 1.5.9 4.6-2.7m146.9 81.6l-1.5-.9-4.6 2.7 1.5.9 4.6-2.7M405.4 133l-1.5-.9-4.6 2.7 1.5.9 4.6-2.7m146.9 81.6l-1.5-.9-4.6 2.7 1.5.9 4.6-2.7m-137.7-87l-1.5-.9-4.6 2.7 1.5.9 4.6-2.7m146.9 81.6l-1.5-.9-4.6 2.7 1.5.9 4.6-2.7m-137.7-86.9l-1.5-.9-4.6 2.7 1.5.9 4.6-2.7m146.9 81.6l-1.5-.9-4.6 2.7 1.5.9 4.6-2.7m-137.7-87l-1.5-.9-4.6 2.7 1.5.9 4.6-2.7m146.8 81.6l-1.5-.9-4.6 2.7 1.5.9 4.6-2.7m-138.7-87.7c-1.3.5-2.5 1.1-3.6 1.7l-1.4.8 1.5.9 1.4-.8c1-.6 2.1-1.1 3.3-1.5l-1.2-1.1M588 192.4l-2-.5c-.8 1.1-1.8 2.1-3.2 3l1.7.8c1.4-.9 2.6-2.1 3.5-3.3m-134-83.7c-2.3 0-4.6.1-6.8.5l.6 1.2c2-.3 4.1-.5 6.1-.5l.1-1.2m135.3 76l-2.1.3c.4 1.2.5 2.4.3 3.6l2.2.1c.1-1.4 0-2.7-.4-4m-122.4-73.6c-1.9-.8-4-1.4-6.1-1.8l-.7 1.2c1.9.4 3.8.9 5.5 1.6l1.3-1m9.5 5.3l-4.6-2.7-1.5.9 4.6 2.7 1.5-.9m9.3 5.4l-4.6-2.7-1.5.9 4.6 2.7 1.5-.9m9.2 5.3l-4.6-2.7-1.5.9 4.6 2.7 1.5-.9m9.3 5.3l-4.6-2.7-1.5.9 4.6 2.7 1.5-.9m9.2 5.4l-4.6-2.7-1.5.9 4.6 2.7 1.5-.9m9.3 5.3l-4.6-2.7-1.5.9 4.6 2.7 1.5-.9m9.2 5.4l-4.6-2.7-1.5.9 4.6 2.7 1.5-.9m9.3 5.3l-4.6-2.7-1.6.9 4.6 2.7 1.6-.9m9.2 5.3l-4.6-2.7-1.5.9 4.6 2.7 1.5-.9m9.3 5.4l-4.6-2.7-1.5.9 4.6 2.7 1.5-.9m9.2 5.3l-4.6-2.7-1.5.9 4.6 2.7 1.5-.9m9.3 5.3l-4.6-2.7-1.5.9 4.6 2.7 1.5-.9m4.8 2.9l-.2-.1-1.5.9.2.1c1.4.8 2.6 1.7 3.5 2.7l1.9-.6c-1-1.1-2.3-2.1-3.9-3M333.6 201.5l3.9-2.2 1.1.6c1.7 1 1.9 1.8.6 2.5-.7.4-1.4.6-2.1.5-.7 0-1.5-.3-2.2-.7l-1.3-.7m6.9-2.8l-4.3-2.5-11.8 6.9 3.3 1.9 3.9-2.3 1.5.9c1.1.6 2.2 1.1 3.3 1.4 1.1.3 2.2.4 3.3.3 1.1-.1 2-.4 3-.9 1.3-.7 1.7-1.6 1.3-2.6-.4-1-1.6-2-3.5-3.1M344.9 212.8c-.8-.4-1-1-.7-1.5.3-.6 1.2-1.3 2.6-2.1 1.4-.8 2.7-1.4 3.7-1.5 1-.2 1.9-.1 2.7.4.8.4 1 1 .7 1.5-.3.6-1.2 1.3-2.7 2.1-1.4.8-2.7 1.3-3.6 1.5-1 .2-1.9.1-2.7-.4m10.3-6c-1.2-.7-2.5-1.1-3.8-1.3-1.3-.2-2.7-.1-4 .2-1.3.3-2.6.8-3.9 1.5-1.3.7-2.2 1.5-2.7 2.3-.5.8-.6 1.6-.3 2.3.3.8 1.1 1.5 2.3 2.2 1.2.7 2.5 1.1 3.8 1.3 1.3.2 2.7.1 4-.2 1.3-.3 2.6-.8 3.9-1.5 1.3-.7 2.2-1.5 2.7-2.3.5-.8.6-1.6.3-2.3-.3-.7-1.1-1.5-2.3-2.2M357.4 219.8l7.8-4.5.7.4c.6.3 1 .7 1.3 1.1.3.4.3.8 0 1.3s-.9 1-2 1.6c-1 .6-2 1-2.8 1.2-.8.2-1.6.2-2.3.1-.7-.1-1.3-.4-1.9-.7l-.8-.5m10-5.6l-3.5-2-11.8 6.9 3.7 2.2c.9.5 1.8.9 2.8 1.3 1 .4 2 .6 3.1.7 1.1.1 2.2 0 3.3-.2 1.1-.2 2.3-.7 3.5-1.4 1.2-.7 2-1.4 2.4-2.1.4-.7.5-1.3.2-1.9-.2-.6-.7-1.2-1.4-1.8-.6-.6-1.4-1.2-2.3-1.7" class="st3"/></g></g><path d="M398 215.4l-44.2-25.9v-68.9L398 146z" class="st5"/><path d="M353.8 119.6L400 146l107.8-63L462 56.8z" class="st6"/><path d="M400 216.4V147l107.8-62v67.6z" class="st7"/><path d="M462 60.7l41.9 24.7v67.7l-104.4 60.3-43.7-25.4v-66.9L462 60.7m0-6.3c-.6 0-1.2.1-1.7.4l-108.7 61.8c-1 .5-1.7 1.9-1.7 3v69.9c0 1.1.8 2.5 1.7 3l46.1 26.9c.5.3 1.1.4 1.7.4s1.2-.1 1.7-.4l107-61.8c1-.6 1.7-1.9 1.7-3V84c0-1.1-.8-2.5-1.7-3l-44.4-26.2c-.4-.3-1.1-.4-1.7-.4z" class="st8"/><path d="M352.8 119.3l46.6 26.5L506 84.2" class="st9"/><path d="M399.4 216.4v-70.6" class="st10"/><path d="M375 131.9V202" class="st11"/><path d="M365.5 165.5l19 10.8" class="st12"/><path d="M417.7 152v41.4M432.4 142.6v41.3M447.2 136.1v41.3M461.9 125.9v41.3M476.7 117.2v41.3M491.5 107.7V149" class="st13"/><path d="M700.7 138.3l60.2 34.1v71.2L700.7 208z" class="st14"/><path d="M700.7 138.3l60.2-35.9 60.3 35.9-60.3 34.1z" class="st15"/><path d="M760.9 172.4l60.3-34.1V208l-60.3 35.6z" class="st16"/><path d="M762.2 104.7m-1.3.8l58.6 33.8v67.6l-58.6 33.8-58.6-33.8v-67.6l58.6-33.8m0-6.4c-.6 0-1.3.1-1.7.4l-61.1 35.3c-1 .5-1.7 1.9-1.7 3v70.6c0 1.1.8 2.5 1.7 3l61.1 35.3c.5.3 1.1.4 1.7.4s1.3-.1 1.7-.4l61.1-35.3c1-.5 1.7-1.9 1.7-3v-70.6c0-1.1-.8-2.5-1.7-3l-61-35.2c-.5-.3-1.1-.5-1.8-.5z" class="st17"/><path d="M700.7 138.3l60.2 34.1 60.3-34.1M760.9 243.6v-71.2" class="st18"/><g class="st0"><defs><path id="SVGID_5_" d="M704.8 204.5l.2-57 49.7 28.6-.2 57.1z"/></defs><clipPath id="SVGID_6_"><use xlink:href="#SVGID_5_" overflow="visible"/></clipPath><path d="M729.8 161.8c-.8-.5-1.6-.6-2.3-.2l-4.5 2.6 5.7 9.9c.4.1.8.2 1.2.5 1 .6 1.9 1.5 2.7 2.8 1.1 1.8 1.4 3.8.9 5l5.5 9.5c.4.1.8.2 1.2.5 1 .6 1.9 1.5 2.7 2.8 1.5 2.6 1.5 5.3 0 6.2-.7.4-1.7.3-2.7-.3s-1.9-1.6-2.7-2.8c-1.1-1.9-1.4-4-.8-5.2l-5.1-8.9v15.5c.4.4.7.9 1 1.4 1.5 2.6 1.5 5.3 0 6.2-.7.4-1.7.3-2.7-.3-1-.6-1.9-1.5-2.7-2.8-1.5-2.6-1.5-5.3 0-6.2.4-.2.8-.3 1.3-.2v-15.7c-.5-.5-.9-1-1.2-1.7-1.1-1.9-1.4-4-.8-5.3l-5.6-9.7-14.9 8.5c-1.3.7-1.3 3 0 5.2l21.6 37.4c.6 1.1 1.4 1.9 2.3 2.4.8.5 1.6.6 2.3.2l21.7-12.3c1.3-.7 1.3-3 0-5.2l-21.6-37.4c-.9-1.1-1.7-2-2.5-2.4" class="st17"/></g><path d="M454.6 244.7l-35.3-20.8v-55.1l35.3 20.3z" class="st20"/><path d="M419.3 168l36.9 21.1 86.3-50.3-36.6-21z" class="st1"/><path d="M456.2 245.5v-55.6l86.3-49.5v54z" class="st21"/><path d="M505.8 122.3l32.3 19.1v52.8l-82.3 47.6-33.6-19.6V170l83.6-47.7m0-6.3c-.6 0-1.2.1-1.7.4l-86.3 49c-1 .5-1.7 1.9-1.7 3v55.1c0 1.1.8 2.5 1.7 3l36.2 21.1c.5.3 1.1.4 1.7.4.6 0 1.2-.1 1.7-.4l84.9-49c1-.6 1.7-1.9 1.7-3V140c0-1.1-.8-2.5-1.7-3l-34.8-20.5c-.4-.4-1-.5-1.7-.5z" class="st22"/><path d="M418.5 167.8l37.2 21.2 85.3-49.3" class="st23"/><path d="M455.7 245.5V189" class="st24"/><path d="M436.3 177.9V234" class="st25"/><path d="M428.7 204.8l15.2 8.6" class="st26"/><path d="M470.4 194v33M482.2 186.4v33.1M494 181.2v33.1M505.8 173.1v33M517.6 166.1v33M529.4 158.5v33.1" class="st27"/><path d="M167.8 239.9c-23.6 0-47.5-9-47.5-26.1v-27.5h95v27.5c0 17.1-23.9 26.1-47.5 26.1z" class="st28"/><path d="M212.8 188.8v25c0 15.5-22.6 23.6-45 23.6s-45-8.1-45-23.6v-25h90m5-5h-100v30c0 19.1 25 28.6 50 28.6s50-9.5 50-28.6v-30z" class="st29"/><path d="M167.8 211.5c-23.6 0-47.5-9-47.5-26.1v-27.5h95v27.5c0 17.2-23.9 26.1-47.5 26.1z" class="st28"/><path d="M212.8 160.4v25c0 15.5-22.6 23.6-45 23.6s-45-8.1-45-23.6v-25h90m5-5h-100v30c0 19.1 25 28.6 50 28.6s50-9.5 50-28.6v-30z" class="st29"/><path d="M198.1 137.8c-16.8-9.7-44.1-9.7-60.8 0-16.7 9.7-16.6 25.5.2 35.2 16.8 9.7 44.1 9.7 60.8 0 16.8-9.7 16.7-25.5-.2-35.2" class="st28"/><path d="M137.5 173c-16.8-9.7-16.9-25.5-.2-35.2 16.7-9.7 44-9.7 60.8 0 16.8 9.7 16.9 25.5.2 35.2-16.7 9.8-43.9 9.8-60.8 0m65.6-38c-19.6-11.3-51.2-11.3-70.7 0s-19.4 29.6.2 41c19.6 11.3 51.2 11.3 70.7 0 19.5-11.4 19.4-29.7-.2-41" class="st29"/><path d="M803.3 232.9l32.1 31.5h29" class="st30"/><path d="M801.1 235.5c-1.3-1.3-1.4-3.5 0-4.8s3.5-1.4 4.8 0c1.3 1.3 1.4 3.5 0 4.8s-3.5 1.3-4.8 0z" class="st31"/><path d="M874.3 268.6c-1.2 0-2.1-.4-2.7-1.1s-.9-1.8-.9-3.3c0-.9.2-1.7.5-2.4.3-.6.8-1.1 1.4-1.5s1.2-.5 2-.5c.6 0 1.1.1 1.5.3.4.2.8.4 1.1.7l-1 1.1c-.3-.2-.5-.4-.7-.5-.2-.1-.5-.2-.8-.2-.4 0-.7.1-1 .3s-.5.5-.7.9c-.2.4-.3 1-.3 1.7s.1 1.3.2 1.7c.1.4.3.7.5.9.2.2.5.3.9.3.2 0 .4 0 .6-.1s.3-.1.5-.2V265h-1l-.2-1.4h3.1v4.1c-.4.3-.9.5-1.3.6-.6.2-1.1.3-1.7.3zM885.1 260.1v1.4h-1.7v5.4h1.7v1.4h-5.4V267h1.7v-5.4h-1.7v-1.4h5.4zM891.8 261.6v6.8h-2v-6.8h-2.3v-1.5h6.7l-.2 1.5h-2.2zM910.7 262.6c0 .6-.2 1.1-.5 1.4s-.7.6-1.2.8l2.2 3.5H909l-1.8-3.2h-.6v3.2h-2V260h2.6c1.1 0 2 .2 2.6.6s.9 1.2.9 2zm-2 0c0-.4-.1-.7-.4-.9-.2-.2-.6-.3-1-.3h-.7v2.4h.7c.4 0 .8-.1 1-.3s.4-.4.4-.9zM915.5 261.5v2h2.9v1.4h-2.9v2.1h3.5v1.4h-5.4v-8.3h5.4l-.2 1.4h-3.3zM927.7 262.8c0 .6-.1 1.2-.4 1.6s-.7.7-1.2.9-1.1.3-1.7.3h-.9v2.8h-2v-8.3h2.6c1.1 0 2 .2 2.6.7.7.4 1 1.1 1 2zm-2 0c0-.9-.5-1.3-1.5-1.3h-.7v2.7h.8c.4 0 .8-.1 1-.3.2-.2.4-.6.4-1.1zM936.1 264.2c0 .9-.1 1.6-.4 2.3-.3.7-.6 1.2-1.1 1.5s-1.1.5-1.8.5-1.3-.2-1.8-.5c-.5-.4-.9-.9-1.1-1.5s-.4-1.4-.4-2.3c0-.9.1-1.6.4-2.3s.6-1.2 1.1-1.5c.5-.4 1.1-.5 1.8-.5s1.3.2 1.8.5c.5.4.9.9 1.1 1.5.3.7.4 1.4.4 2.3zm-2 0c0-1-.1-1.8-.3-2.2-.2-.5-.5-.7-1-.7s-.8.2-1 .7c-.2.5-.3 1.2-.3 2.2 0 1 .1 1.8.3 2.2s.5.7 1 .7.8-.2 1-.7c.2-.4.3-1.1.3-2.2zM944.4 266c0 .5-.1 1-.4 1.4-.3.4-.7.7-1.2.9-.5.2-1.1.3-1.8.3-.8 0-1.4-.1-2-.3-.5-.2-1-.5-1.3-.9l1-1.1c.3.3.6.5 1 .6.4.1.8.2 1.2.2.4 0 .7-.1 1-.3.3-.2.4-.4.4-.8 0-.3-.1-.5-.3-.7s-.6-.3-1.2-.5c-1-.3-1.7-.6-2.1-1-.4-.4-.6-.9-.6-1.6 0-.5.1-.9.4-1.3s.7-.6 1.1-.8c.5-.2 1-.3 1.6-.3.6 0 1.2.1 1.7.3.5.2.9.5 1.3.8l-.9 1.1c-.3-.2-.6-.4-.9-.5-.3-.1-.7-.2-1-.2-.4 0-.7.1-.9.2-.2.1-.3.3-.3.6 0 .2 0 .3.1.4.1.1.3.2.5.3.2.1.6.2 1 .4.5.2 1 .4 1.3.6s.7.5.9.8c.3.4.4.9.4 1.4zM952.3 260.1v1.4h-1.7v5.4h1.7v1.4h-5.4V267h1.7v-5.4h-1.7v-1.4h5.4zM959 261.6v6.8h-2v-6.8h-2.3v-1.5h6.7l-.2 1.5H959zM969.7 264.2c0 .9-.1 1.6-.4 2.3-.3.7-.6 1.2-1.1 1.5s-1.1.5-1.8.5-1.3-.2-1.8-.5c-.5-.4-.9-.9-1.1-1.5s-.4-1.4-.4-2.3c0-.9.1-1.6.4-2.3s.6-1.2 1.1-1.5c.5-.4 1.1-.5 1.8-.5s1.3.2 1.8.5c.5.4.9.9 1.1 1.5.3.7.4 1.4.4 2.3zm-2 0c0-1-.1-1.8-.3-2.2-.2-.5-.5-.7-1-.7s-.8.2-1 .7c-.2.5-.3 1.2-.3 2.2 0 1 .1 1.8.3 2.2s.5.7 1 .7.8-.2 1-.7c.2-.4.3-1.1.3-2.2zM977.9 262.6c0 .6-.2 1.1-.5 1.4s-.7.6-1.2.8l2.2 3.5h-2.2l-1.8-3.2h-.6v3.2h-2V260h2.6c1.1 0 2 .2 2.6.6s.9 1.2.9 2zm-2 0c0-.4-.1-.7-.4-.9-.2-.2-.6-.3-1-.3h-.7v2.4h.7c.4 0 .8-.1 1-.3s.4-.4.4-.9zM984.2 265.3v3.1h-2v-3.1l-2.7-5.2h2.2l1.6 3.6 1.6-3.6h2.1l-2.8 5.2z" class="st32"/><path d="M509.6 228.6l32.1 31.5h29" class="st30"/><path d="M507.4 231.1c-1.3-1.3-1.4-3.5 0-4.8 1.3-1.3 3.5-1.4 4.8 0 1.3 1.3 1.4 3.5 0 4.8-1.3 1.3-3.5 1.3-4.8 0z" class="st31"/><path d="M580.6 264.3c-1.2 0-2.1-.4-2.7-1.1s-.9-1.8-.9-3.3c0-.9.2-1.7.5-2.4.3-.6.8-1.1 1.4-1.5s1.2-.5 2-.5c.6 0 1.1.1 1.5.3.4.2.8.4 1.1.7l-1 1.1c-.3-.2-.5-.4-.7-.5-.2-.1-.5-.2-.8-.2-.4 0-.7.1-1 .3s-.5.5-.7.9c-.2.4-.3 1-.3 1.7s.1 1.3.2 1.7c.1.4.3.7.5.9.2.2.5.3.9.3.2 0 .4 0 .6-.1s.3-.1.5-.2v-1.9h-1l-.2-1.4h3.1v4.1c-.4.3-.9.5-1.3.6-.6.4-1.1.5-1.7.5zM591.4 255.8v1.4h-1.7v5.4h1.7v1.4H586v-1.4h1.7v-5.4H586v-1.4h5.4zM598.1 257.3v6.8h-2v-6.8h-2.3v-1.5h6.7l-.2 1.5h-2.2zM602.9 261.1v-1.5h5.2v1.5h-5.2zM617.1 261.7c0 .5-.1 1-.4 1.4-.3.4-.7.7-1.2.9-.5.2-1.1.3-1.8.3-.8 0-1.4-.1-2-.3-.5-.2-1-.5-1.3-.9l1-1.1c.3.3.6.5 1 .6.4.1.8.2 1.2.2.4 0 .7-.1 1-.3.3-.2.4-.4.4-.8 0-.3-.1-.5-.3-.7s-.6-.3-1.2-.5c-1-.3-1.7-.6-2.1-1-.4-.4-.6-.9-.6-1.6 0-.5.1-.9.4-1.3s.7-.6 1.1-.8c.5-.2 1-.3 1.6-.3.6 0 1.2.1 1.7.3.5.2.9.5 1.3.8l-.9 1.1c-.3-.2-.6-.4-.9-.5-.3-.1-.7-.2-1-.2-.4 0-.7.1-.9.2-.2.1-.3.3-.3.6 0 .2 0 .3.1.4.1.1.3.2.5.3.2.1.6.2 1 .4.5.2 1 .4 1.3.6s.7.5.9.8c.3.4.4.8.4 1.4zM623.3 261v3.1h-2V261l-2.7-5.2h2.2l1.6 3.6 1.6-3.6h2.1l-2.8 5.2zM631.3 264.1l-2.2-6.7c0 .2.1.5.1.9s.1.8.1 1.2.1.9.1 1.4v3.1h-1.7v-8.3h2.5l2.1 6.7c-.1-.4-.1-.9-.2-1.5s-.1-1.3-.1-2v-3.2h1.7v8.3h-2.4zM639.8 255.6c.6 0 1.1.1 1.5.2s.8.4 1.1.7l-1 1.2c-.2-.2-.5-.3-.8-.4-.3-.1-.6-.2-.9-.2-.3 0-.7.1-1 .3-.3.2-.5.5-.7.9s-.3 1-.3 1.7c0 1 .2 1.7.5 2.2.4.5.8.7 1.4.7.4 0 .8-.1 1-.2s.5-.3.8-.5l.9 1.1c-.3.3-.7.6-1.2.8s-1 .3-1.6.3c-.8 0-1.4-.2-2-.5-.6-.3-1-.8-1.4-1.5-.3-.6-.5-1.5-.5-2.4 0-.9.2-1.7.5-2.4s.8-1.1 1.4-1.5c.9-.4 1.5-.5 2.3-.5zM583 269.8v1.4h-1.7v5.4h1.7v1.4h-5.4v-1.4h1.7v-5.4h-1.7v-1.4h5.4zM589.3 278.1l-2.2-6.7c0 .2.1.5.1.9s.1.8.1 1.2.1.9.1 1.4v3.1h-1.7v-8.3h2.5l2.1 6.7c-.1-.4-.1-.9-.2-1.5s-.1-1.3-.1-2v-3.2h1.7v8.3h-2.4zM599.8 269.8v1.4h-1.7v5.4h1.7v1.4h-5.4v-1.4h1.7v-5.4h-1.7v-1.4h5.4zM606.5 271.3v6.8h-2v-6.8h-2.3v-1.5h6.7l-.2 1.5h-2.2zM623 269.6c.6 0 1.1.1 1.5.2s.8.4 1.1.7l-1 1.2c-.2-.2-.5-.3-.8-.4-.3-.1-.6-.2-.9-.2-.3 0-.7.1-1 .3-.3.2-.5.5-.7.9s-.3 1-.3 1.7c0 1 .2 1.7.5 2.2.4.5.8.7 1.4.7.4 0 .8-.1 1-.2s.5-.3.8-.5l.9 1.1c-.3.3-.7.6-1.2.8s-1 .3-1.6.3c-.8 0-1.4-.2-2-.5-.6-.3-1-.8-1.4-1.5-.3-.6-.5-1.5-.5-2.4 0-.9.2-1.7.5-2.4s.8-1.1 1.4-1.5c.9-.4 1.5-.5 2.3-.5zM634 273.9c0 .9-.1 1.6-.4 2.3-.3.7-.6 1.2-1.1 1.5s-1.1.5-1.8.5-1.3-.2-1.8-.5c-.5-.4-.9-.9-1.1-1.5s-.4-1.4-.4-2.3c0-.9.1-1.6.4-2.3s.6-1.2 1.1-1.5c.5-.4 1.1-.5 1.8-.5s1.3.2 1.8.5c.5.4.9.9 1.1 1.5.3.7.4 1.4.4 2.3zm-2 0c0-1-.1-1.8-.3-2.2-.2-.5-.5-.7-1-.7s-.8.2-1 .7c-.2.5-.3 1.2-.3 2.2 0 1 .1 1.8.3 2.2s.5.7 1 .7.8-.2 1-.7c.2-.4.3-1.2.3-2.2zM639.7 278.1l-2.2-6.7c0 .2.1.5.1.9s.1.8.1 1.2.1.9.1 1.4v3.1h-1.7v-8.3h2.5l2.1 6.7c-.1-.4-.1-.9-.2-1.5s-.1-1.3-.1-2v-3.2h1.7v8.3h-2.4zM648.5 271.3v6.8h-2v-6.8h-2.3v-1.5h6.7l-.2 1.5h-2.2zM657.1 276.3h-2.4l-.4 1.8h-2.1l2.5-8.3h2.4l2.5 8.3h-2.1l-.4-1.8zm-2.1-1.4h1.8l-.9-3.7-.9 3.7zM667 269.8v1.4h-1.7v5.4h1.7v1.4h-5.4v-1.4h1.7v-5.4h-1.7v-1.4h5.4zM673.3 278.1l-2.2-6.7c0 .2.1.5.1.9s.1.8.1 1.2.1.9.1 1.4v3.1h-1.7v-8.3h2.5l2.1 6.7c-.1-.4-.1-.9-.2-1.5s-.1-1.3-.1-2v-3.2h1.7v8.3h-2.4zM680.6 271.2v2h2.9v1.4h-2.9v2.1h3.5v1.4h-5.4v-8.3h5.4l-.2 1.4h-3.3zM692.6 272.3c0 .6-.2 1.1-.5 1.4s-.7.6-1.2.8l2.2 3.5h-2.2l-1.8-3.2h-.6v3.2h-2v-8.3h2.6c1.1 0 2 .2 2.6.6s.9 1.1.9 2zm-2 0c0-.4-.1-.7-.4-.9-.2-.2-.6-.3-1-.3h-.7v2.4h.7c.4 0 .8-.1 1-.3s.4-.5.4-.9z" class="st32"/><path d="M170.1 120.1l32.1-31.5h29" class="st30"/><path d="M172.6 122.4c-1.3 1.3-3.5 1.3-4.8 0-1.3-1.3-1.3-3.5 0-4.8 1.3-1.3 3.5-1.3 4.8 0 1.4 1.3 1.4 3.5 0 4.8z" class="st31"/><path d="M243.6 86.5c0 .6-.1 1.2-.4 1.6s-.7.7-1.2.9-1.1.3-1.7.3h-.9v2.8h-2v-8.3h2.6c1.1 0 2 .2 2.6.7.7.5 1 1.1 1 2zm-2 .1c0-.9-.5-1.3-1.5-1.3h-.7V88h.8c.4 0 .8-.1 1-.3.3-.3.4-.7.4-1.1zM248.2 85.2v2h2.9v1.4h-2.9v2.1h3.5v1.4h-5.4v-8.3h5.4l-.2 1.4h-3.3zM260.2 86.4c0 .6-.2 1.1-.5 1.4s-.7.6-1.2.8l2.2 3.5h-2.2l-1.8-3.2h-.6v3.2h-2v-8.3h2.6c1.1 0 2 .2 2.6.6s.9 1.1.9 2zm-2 0c0-.4-.1-.7-.4-.9-.2-.2-.6-.3-1-.3h-.7v2.4h.7c.4 0 .8-.1 1-.3s.4-.5.4-.9zM268.7 89.7c0 .5-.1 1-.4 1.4-.3.4-.7.7-1.2.9-.5.2-1.1.3-1.8.3-.8 0-1.4-.1-2-.3-.5-.2-1-.5-1.3-.9l1-1.1c.3.3.6.5 1 .6.4.1.8.2 1.2.2.4 0 .7-.1 1-.3.3-.2.4-.4.4-.8 0-.3-.1-.5-.3-.7s-.6-.3-1.2-.5c-1-.3-1.7-.6-2.1-1-.4-.4-.6-.9-.6-1.6 0-.5.1-.9.4-1.3s.7-.6 1.1-.8c.5-.2 1-.3 1.6-.3.6 0 1.2.1 1.7.3.5.2.9.5 1.3.8l-.9 1.1c-.3-.2-.6-.4-.9-.5-.3-.1-.7-.2-1-.2-.4 0-.7.1-.9.2-.2.1-.3.3-.3.6 0 .2 0 .3.1.4.1.1.3.2.5.3.2.1.6.2 1 .4.5.2 1 .4 1.3.6s.7.5.9.8c.3.5.4.9.4 1.4zM276.6 83.8v1.4h-1.7v5.4h1.7V92h-5.4v-1.4h1.7v-5.4h-1.7v-1.4h5.4zM285.5 89.7c0 .5-.1 1-.4 1.4-.3.4-.7.7-1.2.9-.5.2-1.1.3-1.8.3-.8 0-1.4-.1-2-.3-.5-.2-1-.5-1.3-.9l1-1.1c.3.3.6.5 1 .6.4.1.8.2 1.2.2.4 0 .7-.1 1-.3.3-.2.4-.4.4-.8 0-.3-.1-.5-.3-.7s-.6-.3-1.2-.5c-1-.3-1.7-.6-2.1-1-.4-.4-.6-.9-.6-1.6 0-.5.1-.9.4-1.3s.7-.6 1.1-.8c.5-.2 1-.3 1.6-.3.6 0 1.2.1 1.7.3.5.2.9.5 1.3.8l-.9 1.1c-.3-.2-.6-.4-.9-.5-.3-.1-.7-.2-1-.2-.4 0-.7.1-.9.2-.2.1-.3.3-.3.6 0 .2 0 .3.1.4.1.1.3.2.5.3.2.1.6.2 1 .4.5.2 1 .4 1.3.6s.7.5.9.8c.3.5.4.9.4 1.4zM291.7 85.3v6.8h-2v-6.8h-2.3v-1.5h6.7l-.2 1.5h-2.2zM298.6 85.2v2h2.9v1.4h-2.9v2.1h3.5v1.4h-5.4v-8.3h5.4l-.2 1.4h-3.3zM308.1 92.2l-2.2-6.7c0 .2.1.5.1.9s.1.8.1 1.2.1.9.1 1.4v3.1h-1.7v-8.3h2.5l2.1 6.7c-.1-.4-.1-.9-.2-1.5s-.1-1.3-.1-2v-3.2h1.7v8.3h-2.4zM316.9 85.3v6.8h-2v-6.8h-2.3v-1.5h6.7l-.2 1.5h-2.2zM332.7 90.6l1.6-6.8h2l-2.4 8.3h-2.4l-2.4-8.3h2.1l1.5 6.8zM344.4 88c0 .9-.1 1.6-.4 2.3-.3.7-.6 1.2-1.1 1.5s-1.1.5-1.8.5-1.3-.2-1.8-.5c-.5-.4-.9-.9-1.1-1.5s-.4-1.4-.4-2.3c0-.9.1-1.6.4-2.3s.6-1.2 1.1-1.5c.5-.4 1.1-.5 1.8-.5s1.3.2 1.8.5c.5.4.9.9 1.1 1.5.3.6.4 1.4.4 2.3zm-2 0c0-1-.1-1.8-.3-2.2-.2-.5-.5-.7-1-.7s-.8.2-1 .7c-.2.5-.3 1.2-.3 2.2 0 1 .1 1.8.3 2.2s.5.7 1 .7.8-.2 1-.7c.2-.5.3-1.2.3-2.2zM347 92.2v-8.3h2v6.8h3.6l-.2 1.6H347zM361 83.8v5.5c0 .6-.1 1.1-.3 1.5-.2.5-.6.8-1 1.1-.5.3-1 .4-1.7.4s-1.3-.1-1.7-.4-.8-.6-1-1c-.2-.4-.3-1-.3-1.6v-5.5h2v4.8c0 .7.1 1.3.2 1.7.1.4.4.6.9.6s.8-.2.9-.6c.1-.4.2-.9.2-1.7v-4.8h1.8zM369.2 83.8l.5 8.3H368l-.1-3.6c0-.4 0-.8 0-1.1s0-.6 0-.9c0-.3 0-.6.1-1l-.9 5.2h-1.5l-1-5.2c0 .3.1.7.1 1 0 .3 0 .6 0 1s0 .7 0 1.2l-.1 3.5h-1.7l.5-8.3h2l.9 5.4.9-5.4h2zM374.2 85.2v2h2.9v1.4h-2.9v2.1h3.5v1.4h-5.4v-8.3h5.4l-.2 1.4h-3.3z" class="st32"/><path d="M492.7 61.6l32.1-31.4h29" class="st30"/><path d="M495.2 63.9c-1.3 1.3-3.5 1.3-4.8 0-1.3-1.3-1.3-3.5 0-4.8 1.3-1.3 3.5-1.3 4.8 0 1.4 1.4 1.3 3.5 0 4.8z" class="st31"/><path d="M564.1 31.9h-2.4l-.4 1.8h-2.1l2.5-8.3h2.4l2.5 8.3h-2.1l-.4-1.8zm-2.1-1.4h1.8l-.9-3.7-.9 3.7zM574.6 28.1c0 .6-.1 1.2-.4 1.6s-.7.7-1.2.9-1.1.3-1.7.3h-.9v2.8h-2v-8.3h2.6c1.1 0 2 .2 2.6.7.7.4 1 1.1 1 2zm-2 0c0-.9-.5-1.3-1.5-1.3h-.7v2.7h.8c.4 0 .8-.1 1-.3.3-.2.4-.6.4-1.1zM583 28.1c0 .6-.1 1.2-.4 1.6s-.7.7-1.2.9-1.1.3-1.7.3h-.9v2.8h-2v-8.3h2.6c1.1 0 2 .2 2.6.7.7.4 1 1.1 1 2zm-2 0c0-.9-.5-1.3-1.5-1.3h-.7v2.7h.8c.4 0 .8-.1 1-.3.3-.2.4-.6.4-1.1zM597.2 25.2c.6 0 1.1.1 1.5.2s.8.4 1.1.7l-1 1.2c-.2-.2-.5-.3-.8-.4-.3-.1-.6-.2-.9-.2-.3 0-.7.1-1 .3-.3.2-.5.5-.7.9s-.3 1-.3 1.7c0 1 .2 1.7.5 2.2.4.5.8.7 1.4.7.4 0 .8-.1 1-.2s.5-.3.8-.5l.9 1.1c-.3.3-.7.6-1.2.8s-1 .3-1.6.3c-.8 0-1.4-.2-2-.5-.6-.3-1-.8-1.4-1.5-.3-.6-.5-1.5-.5-2.4 0-.9.2-1.7.5-2.4s.8-1.1 1.4-1.5c.9-.3 1.6-.5 2.3-.5zM608.2 29.5c0 .9-.1 1.6-.4 2.3-.3.7-.6 1.2-1.1 1.5s-1.1.5-1.8.5-1.3-.2-1.8-.5c-.5-.4-.9-.9-1.1-1.5s-.4-1.4-.4-2.3c0-.9.1-1.6.4-2.3s.6-1.2 1.1-1.5c.5-.4 1.1-.5 1.8-.5s1.3.2 1.8.5c.5.4.9.9 1.1 1.5.3.7.4 1.4.4 2.3zm-2 0c0-1-.1-1.8-.3-2.2-.2-.5-.5-.7-1-.7s-.8.2-1 .7c-.2.5-.3 1.2-.3 2.2 0 1 .1 1.8.3 2.2s.5.7 1 .7.8-.2 1-.7c.2-.4.3-1.1.3-2.2zM613.9 33.7l-2.2-6.7c0 .2.1.5.1.9s.1.8.1 1.2.1.9.1 1.4v3.1h-1.7v-8.3h2.5l2.1 6.7c-.1-.4-.1-.9-.2-1.5s-.1-1.3-.1-2v-3.2h1.7v8.3h-2.4zM622.7 26.9v6.8h-2v-6.8h-2.3v-1.5h6.7l-.2 1.5h-2.2zM631.3 31.9h-2.4l-.4 1.8h-2.1l2.5-8.3h2.4l2.5 8.3h-2.1l-.4-1.8zm-2.1-1.4h1.8l-.9-3.7-.9 3.7zM641.2 25.4v1.4h-1.7v5.4h1.7v1.4h-5.4v-1.4h1.7v-5.4h-1.7v-1.4h5.4zM647.5 33.7l-2.2-6.7c0 .2.1.5.1.9s.1.8.1 1.2.1.9.1 1.4v3.1h-1.7v-8.3h2.5l2.1 6.7c-.1-.4-.1-.9-.2-1.5s-.1-1.3-.1-2v-3.2h1.7v8.3h-2.4zM654.8 26.8v2h2.9v1.4h-2.9v2.1h3.5v1.4h-5.4v-8.3h5.4l-.2 1.4h-3.3zM666.8 27.9c0 .6-.2 1.1-.5 1.4s-.7.6-1.2.8l2.2 3.5h-2.2l-1.8-3.2h-.6v3.2h-2v-8.3h2.6c1.1 0 2 .2 2.6.6s.9 1.2.9 2zm-2 0c0-.4-.1-.7-.4-.9-.2-.2-.6-.3-1-.3h-.7v2.4h.7c.4 0 .8-.1 1-.3s.4-.4.4-.9z" class="st32"/></svg>