<svg xmlns="http://www.w3.org/2000/svg" viewBox="0 0 525.3 294.9" enable-background="new 0 0 525.3 294.9"><style type="text/css">.st0{opacity:0.33;} .st1{fill:#3A71B7;} .st2{fill:#5184C8;} .st3{fill:#3465A4;} .st4{fill:#204A87;} .st5{fill:none;stroke:#204A87;stroke-width:6;} .st6{fill:none;stroke:#204A87;stroke-width:7;} .st7{fill:none;stroke:#204A87;stroke-width:5;} .st8{fill:none;stroke:#204A87;stroke-width:6;stroke-linecap:round;} .st9{fill:none;stroke:#204A87;stroke-width:5;stroke-linecap:round;} .st10{fill:#00C27A;} .st11{fill:#00D37A;} .st12{fill:#00BA83;} .st13{fill:#009F73;} .st14{fill:none;stroke:#009F73;stroke-width:6;} .st15{fill:none;stroke:#009F73;stroke-width:7;} .st16{fill:none;stroke:#009F73;stroke-width:5;} .st17{fill:none;stroke:#009F73;stroke-width:6;stroke-linecap:round;} .st18{fill:none;stroke:#009F73;stroke-width:5;stroke-linecap:round;}</style><g class="st0"><path d="M200.7 210.7l-44.1-25.9v-68.9l44.1 25.4z" class="st1"/><path d="M156.6 114.9l46.1 26.4 107.9-63-45.8-26.2z" class="st2"/><path d="M202.7 211.7v-69.4l107.9-62v67.6z" class="st3"/><path d="M264.7 56l41.9 24.7v67.7l-104.4 60.3-43.5-25.4v-66.9l106-60.4m0-6.3c-.6 0-1.2.1-1.7.4l-108.7 61.8c-1 .5-1.7 1.9-1.7 3v69.9c0 1.1.8 2.5 1.7 3l46.1 26.9c.5.3 1.1.4 1.7.4.6 0 1.2-.1 1.7-.4l107-61.8c1-.6 1.7-1.9 1.7-3V79.3c0-1.1-.8-2.5-1.7-3l-44.4-26.2c-.4-.3-1-.4-1.7-.4z" class="st4"/><path d="M155.5 114.6l46.6 26.5 106.6-61.6" class="st5"/><path d="M202.1 211.7v-70.6" class="st6"/><path d="M177.8 127.2v70.1" class="st7"/><path d="M168.3 160.8l19 10.8" class="st8"/><path d="M220.4 147.3v41.3M235.2 137.9v41.3M250 131.4v41.3M264.7 121.2v41.3M279.4 112.5v41.3M294.2 103v41.3" class="st9"/></g><path d="M283.2 241.8l-35.3-20.7V166l35.3 20.3z" class="st10"/><path d="M247.9 165.2l36.9 21.1 86.3-50.4-36.6-21z" class="st11"/><path d="M284.8 242.6v-55.5l86.3-49.6v54.1z" class="st12"/><path d="M334.4 119.5l32.3 19.1v52.8L284.4 239l-33.6-19.6v-52.2l83.6-47.7m0-6.4c-.6 0-1.2.1-1.7.4l-86.3 49c-1 .5-1.7 1.9-1.7 3v55.1c0 1.1.8 2.5 1.7 3l36.2 21.1c.5.3 1.1.4 1.7.4.6 0 1.2-.1 1.7-.4l84.9-49c1-.6 1.7-1.9 1.7-3V137c0-1.1-.8-2.5-1.7-3l-34.8-20.5c-.4-.2-1-.4-1.7-.4z" class="st13"/><path d="M247.1 164.9l37.3 21.3 85.2-49.3" class="st14"/><path d="M284.4 242.6v-56.4" class="st15"/><path d="M264.9 175.1v56" class="st16"/><path d="M257.3 201.9l15.2 8.7" class="st17"/><path d="M299 191.1v33.1M310.8 183.6v33M322.6 178.4v33M334.4 170.2v33.1M346.2 163.2v33.1M358.1 155.7v33" class="st18"/></svg>