<?xml version="1.0" standalone="no"?>
<!DOCTYPE svg PUBLIC "-//W3C//DTD SVG 20010904//EN"
 "http://www.w3.org/TR/2001/REC-SVG-20010904/DTD/svg10.dtd">
<svg version="1.0" xmlns="http://www.w3.org/2000/svg"
 width="600.000000pt" height="600.000000pt" viewBox="0 0 600.000000 600.000000"
 preserveAspectRatio="xMidYMid meet">
<metadata>
Created by potrace 1.11, written by Peter Selinger 2001-2013
</metadata>
<g transform="translate(0.000000,600.000000) scale(0.100000,-0.100000)"
fill="#000000" stroke="none">
<path d="M2002 5890 c-25 -24 -27 -49 -8 -105 18 -52 12 -80 -29 -140 -38 -54
-78 -94 -170 -171 -33 -27 -71 -62 -84 -78 -14 -15 -29 -34 -35 -40 -56 -61
-121 -250 -129 -371 -8 -110 29 -264 89 -370 57 -101 92 -133 169 -150 l55
-13 1 36 c1 21 3 51 4 67 1 17 -11 56 -26 87 -58 115 -82 253 -64 363 4 22 22
73 41 113 35 74 64 106 251 283 58 55 88 93 111 140 61 127 71 218 31 289 -40
70 -159 105 -207 60z"/>
<path d="M2869 5872 l-38 -39 14 -46 c24 -79 99 -160 141 -152 10 2 22 4 25 4
3 1 19 12 34 25 20 18 28 33 27 56 -2 76 -51 161 -104 179 -47 17 -57 14 -99
-27z"/>
<path d="M2437 5873 c-6 -11 -15 -85 -22 -178 -16 -217 -26 -247 -126 -372
-71 -88 -184 -285 -182 -317 1 -15 35 -101 63 -160 26 -53 65 -84 108 -82 37
1 62 50 53 103 -16 91 22 171 138 293 93 97 161 230 176 341 18 133 12 175
-41 284 -25 53 -44 79 -61 86 -29 11 -100 12 -106 2z"/>
<path d="M3380 5716 c-14 -38 -14 -70 -1 -110 32 -92 0 -197 -127 -425 -90
-163 -114 -239 -118 -381 -3 -127 21 -297 46 -321 8 -8 34 -27 58 -43 41 -28
43 -29 57 -10 38 51 48 92 37 146 -25 125 3 292 71 418 13 25 45 84 71 132 26
47 73 151 105 230 l57 143 -55 92 c-81 133 -88 140 -144 146 -43 4 -49 2 -57
-17z"/>
<path d="M2823 5578 c-4 -7 -8 -51 -8 -98 -1 -102 -8 -117 -127 -281 -112
-155 -116 -161 -132 -224 -40 -153 31 -347 158 -430 18 -12 156 -31 156 -21 0
44 -28 127 -56 165 -91 127 -85 168 53 353 35 48 75 109 88 137 33 67 95 222
95 235 0 14 -44 69 -101 128 -38 40 -52 48 -82 48 -20 0 -39 -6 -44 -12z"/>
<path d="M3739 5253 c-21 -5 -54 -78 -51 -113 3 -36 27 -93 46 -109 19 -16 87
-25 101 -14 6 4 21 23 33 40 27 38 25 41 -45 141 -43 60 -50 65 -84 55z"/>
<path d="M1130 5156 c-8 -6 -25 -23 -38 -38 l-24 -26 58 -62 c80 -85 87 -88
135 -54 75 52 73 78 -6 129 -90 57 -108 65 -125 51z"/>
<path d="M3608 4903 c-27 -29 -47 -63 -53 -91 -3 -9 -9 -35 -15 -57 -15 -60
-10 -192 11 -255 24 -74 64 -110 124 -110 60 0 81 29 71 98 -4 26 -8 61 -10
77 -3 35 15 103 43 160 10 22 18 54 16 72 -6 69 -73 133 -137 133 -14 0 -36
-12 -50 -27z"/>
<path d="M1158 4785 c-30 -17 -44 -52 -34 -89 13 -51 211 -323 261 -358 19
-14 62 -8 78 10 14 15 30 58 32 87 1 6 -34 81 -77 167 -86 173 -98 185 -186
194 -31 3 -56 -1 -74 -11z"/>
<path d="M2265 4609 c10 -131 112 -187 176 -98 51 72 -31 155 -145 147 l-35
-2 4 -47z"/>
<path d="M2178 4255 c-2 -1 -66 -5 -143 -9 -77 -3 -156 -8 -175 -10 -19 -3
-57 -8 -85 -12 -27 -3 -72 -10 -100 -16 -27 -5 -63 -12 -80 -14 -16 -3 -57
-12 -90 -21 -33 -8 -67 -17 -75 -19 -8 -2 -33 -8 -55 -14 -22 -6 -47 -12 -55
-14 -48 -13 -266 -94 -330 -123 -101 -46 -144 -75 -215 -148 -70 -72 -115
-150 -145 -255 -26 -90 -28 -143 -31 -1290 -2 -665 1 -842 16 -921 2 -10 7
-39 10 -66 8 -54 59 -289 75 -343 74 -258 133 -374 240 -473 75 -70 272 -186
420 -247 41 -17 84 -35 95 -40 26 -12 176 -58 212 -65 97 -20 189 -35 253 -40
41 -3 98 -7 125 -10 223 -21 923 -22 1085 0 19 2 59 7 89 10 30 4 61 8 70 10
9 1 56 10 104 19 245 46 619 189 761 290 162 116 261 269 290 451 3 17 8 46
11 65 3 19 7 46 10 60 3 14 7 41 10 60 3 19 10 59 15 89 6 30 10 55 10 55 0 1
53 1 118 2 187 0 271 16 391 72 195 91 335 282 371 505 23 149 33 501 18 652
-49 477 -264 776 -674 933 -74 28 -251 76 -319 85 -87 13 -125 52 -154 160
-28 104 -79 208 -138 282 -160 198 -477 322 -868 341 -99 5 -1063 13 -1067 9z"/>
</g>
</svg>
