<?xml version="1.0" standalone="no"?>
<!DOCTYPE svg PUBLIC "-//W3C//DTD SVG 20010904//EN"
 "http://www.w3.org/TR/2001/REC-SVG-20010904/DTD/svg10.dtd">
<svg version="1.0" xmlns="http://www.w3.org/2000/svg"
 width="498.000000pt" height="498.000000pt" viewBox="0 0 498.000000 498.000000"
 preserveAspectRatio="xMidYMid meet">
<metadata>
Created by potrace 1.11, written by Peter Selinger 2001-2013
</metadata>
<g transform="translate(0.000000,498.000000) scale(0.100000,-0.100000)"
fill="#000000" stroke="none">
<path d="M245 4971 c-83 -21 -166 -86 -207 -164 l-23 -42 -3 -2235 c-2 -1229
0 -2254 3 -2277 8 -53 71 -149 120 -182 20 -14 60 -33 88 -42 l52 -18 -115 -3
c-63 -2 985 -4 2330 -4 1345 0 2391 3 2325 6 -66 3 -109 7 -95 8 76 7 172 81
218 167 l27 50 0 2260 0 2260 -23 45 c-33 63 -96 125 -156 152 l-51 23 -2230
2 c-1227 0 -2243 -2 -2260 -6z m4354 -619 c19 -9 44 -30 55 -45 l21 -28 3
-1907 c2 -1277 0 -1919 -7 -1942 -6 -20 -24 -49 -41 -65 l-31 -30 -2101 -3
c-2093 -2 -2101 -2 -2133 18 -70 43 -65 -120 -65 2002 0 1891 0 1913 20 1946
11 18 34 41 52 52 33 20 55 20 2113 20 1961 0 2082 -1 2114 -18z"/>
<path d="M930 3560 l0 -170 310 0 310 0 0 170 0 170 -310 0 -310 0 0 -170z"/>
<path d="M3420 3560 l0 -170 310 0 310 0 0 170 0 170 -310 0 -310 0 0 -170z"/>
<path d="M930 2945 l0 -175 310 0 310 0 0 175 0 175 -310 0 -310 0 0 -175z"/>
<path d="M2170 2945 l0 -175 310 0 310 0 0 175 0 175 -310 0 -310 0 0 -175z"/>
<path d="M3420 2945 l0 -175 310 0 310 0 0 175 0 175 -310 0 -310 0 0 -175z"/>
<path d="M930 2325 l0 -175 310 0 310 0 0 175 0 175 -310 0 -310 0 0 -175z"/>
<path d="M2170 2325 l0 -175 310 0 310 0 0 175 0 175 -310 0 -310 0 0 -175z"/>
<path d="M3420 2325 l0 -175 310 0 310 0 0 175 0 175 -310 0 -310 0 0 -175z"/>
<path d="M930 1710 l0 -170 1555 0 1555 0 0 170 0 170 -1555 0 -1555 0 0 -170z"/>
<path d="M1550 1095 l0 -175 310 0 310 0 0 175 0 175 -310 0 -310 0 0 -175z"/>
<path d="M2790 1095 l0 -175 315 0 315 0 0 175 0 175 -315 0 -315 0 0 -175z"/>
</g>
</svg>
